<svg xmlns="http://www.w3.org/2000/svg">
    <symbol id="dropdown" viewBox="0 0 32 32">
        <path d="M2.60849 9.91421C3.38954 9.13317 4.65587 9.13317 5.43692 9.91421L17.4095 21.8868C18.1905 22.6678 18.1905 23.9342 17.4095 24.7152C16.6284 25.4963 15.3621 25.4963 14.5811 24.7152L2.60849 12.7426C1.82744 11.9616 1.82744 10.6953 2.60849 9.91421Z"></path><path d="M29.4142 9.91421C28.6332 9.13317 27.3668 9.13317 26.5858 9.91421L14.5962 21.9038C13.8151 22.6849 13.8151 23.9512 14.5962 24.7322C15.3772 25.5133 16.6436 25.5133 17.4246 24.7322L29.4142 12.7426C30.1953 11.9616 30.1953 10.6953 29.4142 9.91421Z"></path>
    </symbol>
    <symbol id="menu" viewBox="0 0 32 32">
       <path d="M2 7.5C2 6.67157 2.67157 6 3.5 6H28.5C29.3284 6 30 6.67157 30 7.5C30 8.32843 29.3284 9 28.5 9H3.5C2.67157 9 2 8.32843 2 7.5Z"></path><path d="M2 24.5C2 23.6716 2.67157 23 3.5 23H28.5C29.3284 23 30 23.6716 30 24.5C30 25.3284 29.3284 26 28.5 26H3.5C2.67157 26 2 25.3284 2 24.5Z"></path><path d="M2 16C2 15.1716 2.67157 14.5 3.5 14.5H28.5C29.3284 14.5 30 15.1716 30 16C30 16.8284 29.3284 17.5 28.5 17.5H3.5C2.67157 17.5 2 16.8284 2 16Z"></path>
    </symbol>
    <symbol id="code" viewBox="0 0 24 24">
       <path fill-rule="evenodd" clip-rule="evenodd" d="M14.4464 2.03283C15.0309 2.17896 15.3863 2.77125 15.2402 3.35575L10.8765 20.8103C10.7304 21.3948 10.1381 21.7502 9.5536 21.604C8.96909 21.4579 8.61372 20.8656 8.75984 20.2811L13.1235 2.82658C13.2696 2.24208 13.8619 1.8867 14.4464 2.03283ZM6.22593 6.68341C6.65196 7.10944 6.65196 7.80017 6.22593 8.22619L2.63369 11.8184L6.22593 15.4107C6.65196 15.8367 6.65196 16.5274 6.22593 16.9535C5.79991 17.3795 5.10918 17.3795 4.68316 16.9535L0.31952 12.5898C-0.106507 12.1638 -0.106507 11.4731 0.31952 11.0471L4.68316 6.68341C5.10918 6.25739 5.79991 6.25739 6.22593 6.68341ZM17.7741 6.68341C18.2001 6.25739 18.8908 6.25739 19.3168 6.68341L23.6805 11.0471C24.1065 11.4731 24.1065 12.1638 23.6805 12.5898L19.3168 16.9535C18.8908 17.3795 18.2001 17.3795 17.7741 16.9535C17.348 16.5274 17.348 15.8367 17.7741 15.4107L21.3663 11.8184L17.7741 8.22619C17.348 7.80017 17.348 7.10944 17.7741 6.68341Z"></path>
    </symbol>
    <symbol id="play" viewBox="0 0 320.001 320.001">
		<path d="M295.84,146.049l-256-144c-4.96-2.784-11.008-2.72-15.904,0.128C19.008,5.057,16,10.305,16,16.001v288
	c0,5.696,3.008,10.944,7.936,13.824c2.496,1.44,5.28,2.176,8.064,2.176c2.688,0,5.408-0.672,7.84-2.048l256-144
	c5.024-2.848,8.16-8.16,8.16-13.952S300.864,148.897,295.84,146.049z"/>
		<g>
		</g>
		<g>
		</g>
		<g>
		</g>
		<g>
		</g>
		<g>
		</g>
		<g>
		</g>
		<g>
		</g>
		<g>
		</g>
		<g>
		</g>
		<g>
		</g>
		<g>
		</g>
		<g>
		</g>
		<g>
		</g>
		<g>
		</g>
		<g>
		</g>
    </symbol>
    <symbol id="external-link" viewBox="0 0 100 100">
		<path fill="currentColor" d="M18.8,85.1h56l0,0c2.2,0,4-1.8,4-4v-32h-8v28h-48v-48h28v-8h-32l0,0c-2.2,0-4,1.8-4,4v56C14.8,83.3,16.6,85.1,18.8,85.1z"></path> <polygon fill="currentColor" points="45.7,48.7 51.3,54.3 77.2,28.5 77.2,37.2 85.2,37.2 85.2,14.9 62.8,14.9 62.8,22.9 71.5,22.9"></polygon>
    </symbol>
	<symbol id="check" viewBox="0 -46 417.81333 417">
		<path d="m159.988281 318.582031c-3.988281 4.011719-9.429687 6.25-15.082031 6.25s-11.09375-2.238281-15.082031-6.25l-120.449219-120.46875c-12.5-12.5-12.5-32.769531 0-45.246093l15.082031-15.085938c12.503907-12.5 32.75-12.5 45.25 0l75.199219 75.203125 203.199219-203.203125c12.503906-12.5 32.769531-12.5 45.25 0l15.082031 15.085938c12.5 12.5 12.5 32.765624 0 45.246093zm0 0"/>
    </symbol>
	<symbol id="check-list" viewBox="0 0 15 16">
		<path fill-rule="evenodd" clip-rule="evenodd" d="M7.5 15.5C11.6421 15.5 15 12.1421 15 8C15 3.85786 11.6421 0.5 7.5 0.5C3.35786 0.5 0 3.85786 0 8C0 12.1421 3.35786 15.5 7.5 15.5ZM7.50001 14.4491C11.0617 14.4491 13.9491 11.5617 13.9491 8C13.9491 4.43828 11.0617 1.55094 7.50001 1.55094C3.9383 1.55094 1.05095 4.43828 1.05095 8C1.05095 11.5617 3.9383 14.4491 7.50001 14.4491Z"></path><rect x="4.21875" y="9.25635" width="0.9375" height="3.28125" rx="0.46875" transform="rotate(-57.7092 4.21875 9.25635)"></rect><rect width="0.9375" height="7.03125" rx="0.46875" transform="matrix(0.845348 0.534217 0.534217 -0.845348 6.20007 10.5084)"></rect>  
    </symbol>
    <symbol id="download" viewBox="0 0 24 24">
		<path d="m12 16c-.205 0-.401-.084-.542-.232l-5.25-5.5c-.455-.476-.117-1.268.542-1.268h2.75v-5.75c0-.689.561-1.25 1.25-1.25h2.5c.689 0 1.25.561 1.25 1.25v5.75h2.75c.659 0 .997.792.542 1.268l-5.25 5.5c-.141.148-.337.232-.542.232z"/><path d="m22.25 22h-20.5c-.965 0-1.75-.785-1.75-1.75v-.5c0-.965.785-1.75 1.75-1.75h20.5c.965 0 1.75.785 1.75 1.75v.5c0 .965-.785 1.75-1.75 1.75z"/>
    </symbol>
    <symbol id="book" viewBox="0 0 296.999 296.999">
		<g>
	<g>
		<g>
			<path d="M45.432,35.049c-0.008,0-0.017,0-0.025,0c-2.809,0-5.451,1.095-7.446,3.085c-2.017,2.012-3.128,4.691-3.128,7.543
				v159.365c0,5.844,4.773,10.61,10.641,10.625c24.738,0.059,66.184,5.215,94.776,35.136V84.023c0-1.981-0.506-3.842-1.461-5.382
				C115.322,40.849,70.226,35.107,45.432,35.049z"/>
			<path d="M262.167,205.042V45.676c0-2.852-1.111-5.531-3.128-7.543c-1.995-1.99-4.639-3.085-7.445-3.085c-0.009,0-0.018,0-0.026,0
				c-24.793,0.059-69.889,5.801-93.357,43.593c-0.955,1.54-1.46,3.401-1.46,5.382v166.779
				c28.592-29.921,70.038-35.077,94.776-35.136C257.394,215.651,262.167,210.885,262.167,205.042z"/>
			<path d="M286.373,71.801h-7.706v133.241c0,14.921-12.157,27.088-27.101,27.125c-20.983,0.05-55.581,4.153-80.084,27.344
				c42.378-10.376,87.052-3.631,112.512,2.171c3.179,0.724,6.464-0.024,9.011-2.054c2.538-2.025,3.994-5.052,3.994-8.301V82.427
				C297,76.568,292.232,71.801,286.373,71.801z"/>
			<path d="M18.332,205.042V71.801h-7.706C4.768,71.801,0,76.568,0,82.427v168.897c0,3.25,1.456,6.276,3.994,8.301
				c2.545,2.029,5.827,2.78,9.011,2.054c25.46-5.803,70.135-12.547,112.511-2.171c-24.502-23.19-59.1-27.292-80.083-27.342
				C30.49,232.13,18.332,219.963,18.332,205.042z"/>
		</g>
	</g>
</g>
<g>
</g>
<g>
</g>
<g>
</g>
<g>
</g>
<g>
</g>
<g>
</g>
<g>
</g>
<g>
</g>
<g>
</g>
<g>
</g>
<g>
</g>
<g>
</g>
<g>
</g>
<g>
</g>
<g>
</g>
    </symbol>
    <symbol id="comment-simbol" viewBox="0 0 25 25">
		<path d="M17.33 7.71875C16.82 7.71875 16.35 8.00875 16.13 8.45875L14.71 11.2987C14.57 11.5787 14.5 11.8787 14.5 12.1887V16.7187C14.5 17.2687 14.95 17.7188 15.5 17.7188H19.5C20.05 17.7188 20.5 17.2687 20.5 16.7187V12.7187C20.5 12.1687 20.05 11.7187 19.5 11.7187H17.5L18.53 9.65875C18.98 8.76875 18.33 7.71875 17.33 7.71875ZM7.33 7.71875C6.82 7.71875 6.35 8.00875 6.13 8.45875L4.71 11.2987C4.57 11.5787 4.5 11.8787 4.5 12.1887V16.7187C4.5 17.2687 4.95 17.7188 5.5 17.7188H9.5C10.05 17.7188 10.5 17.2687 10.5 16.7187V12.7187C10.5 12.1687 10.05 11.7187 9.5 11.7187H7.5L8.53 9.65875C8.98 8.76875 8.33 7.71875 7.33 7.71875Z"></path>
    </symbol>
    <symbol id="frequent-questions" viewBox="0 0 92 92">
		<path d="M45.386.004C19.983.344-.333 21.215.005 46.619c.34 25.393 21.209 45.715 46.611 45.377 25.398-.342 45.718-21.213 45.38-46.615-.34-25.395-21.21-45.716-46.61-45.377zM45.25 74l-.254-.004c-3.912-.116-6.67-2.998-6.559-6.852.109-3.788 2.934-6.538 6.717-6.538l.227.004c4.021.119 6.748 2.972 6.635 6.937C51.904 71.346 49.123 74 45.25 74zm16.455-32.659c-.92 1.307-2.943 2.93-5.492 4.916l-2.807 1.938c-1.541 1.198-2.471 2.325-2.82 3.434-.275.873-.41 1.104-.434 2.88l-.004.451H39.43l.031-.907c.131-3.728.223-5.921 1.768-7.733 2.424-2.846 7.771-6.289 7.998-6.435.766-.577 1.412-1.234 1.893-1.936 1.125-1.551 1.623-2.772 1.623-3.972a7.74 7.74 0 0 0-1.471-4.576c-.939-1.323-2.723-1.993-5.303-1.993-2.559 0-4.311.812-5.359 2.478-1.078 1.713-1.623 3.512-1.623 5.35v.457H27.936l.02-.477c.285-6.769 2.701-11.643 7.178-14.487C37.947 18.918 41.447 18 45.531 18c5.346 0 9.859 1.299 13.412 3.861 3.6 2.596 5.426 6.484 5.426 11.556 0 2.837-.896 5.502-2.664 7.924z"></path>
    </symbol>
    <symbol id="frequent-questions-alt" viewBox="0 0 32 32">
		<path fill-rule="evenodd" clip-rule="evenodd" d="M16 28C22.6274 28 28 22.6274 28 16C28 9.37258 22.6274 4 16 4C9.37258 4 4 9.37258 4 16C4 22.6274 9.37258 28 16 28ZM16 31C24.2843 31 31 24.2843 31 16C31 7.71573 24.2843 1 16 1C7.71573 1 1 7.71573 1 16C1 24.2843 7.71573 31 16 31Z"></path><path d="M15.7344 22.5039C15.7344 23.0562 15.2867 23.5039 14.7344 23.5039C14.1821 23.5039 13.7344 23.0562 13.7344 22.5039C13.7344 21.9516 14.1821 21.5039 14.7344 21.5039C15.2867 21.5039 15.7344 21.9516 15.7344 22.5039Z"></path><path fill-rule="evenodd" clip-rule="evenodd" d="M16.2344 22.5039C16.2344 23.3323 15.5628 24.0039 14.7344 24.0039C13.9059 24.0039 13.2344 23.3323 13.2344 22.5039C13.2344 21.6755 13.9059 21.0039 14.7344 21.0039C15.5628 21.0039 16.2344 21.6755 16.2344 22.5039ZM14.7344 23.5039C15.2867 23.5039 15.7344 23.0562 15.7344 22.5039C15.7344 21.9516 15.2867 21.5039 14.7344 21.5039C14.1821 21.5039 13.7344 21.9516 13.7344 22.5039C13.7344 23.0562 14.1821 23.5039 14.7344 23.5039Z"></path><path d="M14.6675 19.4969C14.1125 19.4969 13.6631 19.0463 13.7161 18.4939C13.7743 17.8863 13.8803 17.2467 14.034 16.904C14.2961 16.3518 14.7767 15.8755 15.4757 15.4752C15.7233 15.3371 16.0146 15.1853 16.3495 15.0196C16.6845 14.8402 17.0049 14.6331 17.3107 14.3984C17.6165 14.1638 17.8714 13.8877 18.0752 13.5702C18.2937 13.2526 18.4029 12.8799 18.4029 12.452C18.4029 12.1207 18.3301 11.8239 18.1845 11.5616C18.0534 11.2993 17.8786 11.0784 17.6602 10.899C17.4417 10.7195 17.1869 10.5884 16.8956 10.5055C16.6044 10.4089 16.3058 10.3606 16 10.3606C15.6505 10.3606 15.3301 10.4158 15.0388 10.5262C14.7476 10.6229 14.4782 10.7609 14.2306 10.9404C13.983 11.106 13.7573 11.2993 13.5534 11.5202C13.2621 11.86 12.7602 11.9811 12.3841 11.7385L12.2158 11.6299C11.805 11.3649 11.6408 10.829 11.9268 10.4325C12.2918 9.92637 12.7612 9.51586 13.335 9.20098C14.165 8.73163 15.0752 8.49695 16.0655 8.49695C16.6044 8.49695 17.1359 8.57978 17.6602 8.74543C18.199 8.89728 18.6796 9.13886 19.1019 9.47017C19.5243 9.78768 19.8592 10.2018 20.1068 10.7126C20.3689 11.2234 20.5 11.8308 20.5 12.5348C20.5 13.018 20.4345 13.439 20.3034 13.7979C20.1723 14.143 19.9903 14.4606 19.7573 14.7504C19.5388 15.0265 19.2694 15.275 18.949 15.4959C18.6432 15.703 18.3155 15.8962 17.966 16.0757C17.6748 16.2275 17.3908 16.3863 17.1141 16.552C16.8374 16.7038 16.5898 16.8833 16.3714 17.0903C16.1675 17.2974 16 17.539 15.8689 17.8151C15.8112 17.9366 15.7662 18.2022 15.7339 18.4944C15.673 19.046 15.2224 19.4969 14.6675 19.4969Z"></path><path fill-rule="evenodd" clip-rule="evenodd" d="M13.5823 16.6895C13.9002 16.0199 14.4675 15.4764 15.2272 15.0413L15.2322 15.0385C15.4869 14.8964 15.7833 14.742 16.1204 14.5751C16.4286 14.4096 16.7238 14.2185 17.0063 14.0018C17.2673 13.8014 17.4825 13.5679 17.6545 13.3L17.6588 13.2933L17.6633 13.2867C17.8181 13.0617 17.9029 12.7904 17.9029 12.452C17.9029 12.1965 17.8475 11.9848 17.7473 11.8043L17.7421 11.7948L17.7372 11.7851C17.6363 11.5832 17.505 11.4185 17.3428 11.2853C17.1811 11.1525 16.9888 11.0518 16.7589 10.9865L16.7485 10.9835L16.7382 10.9801C16.4975 10.9002 16.2521 10.8606 16 10.8606C15.7037 10.8606 15.4442 10.9072 15.2161 10.9938L15.2063 10.9975L15.1963 11.0008C14.9535 11.0813 14.73 11.1959 14.524 11.3452L14.5164 11.3507L14.5086 11.3559C14.2962 11.4981 14.1022 11.6637 13.9262 11.8535C13.5038 12.339 12.736 12.5605 12.1131 12.1587L11.9447 12.0501C11.3515 11.6673 11.0299 10.8212 11.5212 10.14C11.9313 9.57151 12.4572 9.11284 13.0916 8.76419C13.999 8.25175 14.9935 7.99695 16.0655 7.99695C16.654 7.99695 17.2338 8.08714 17.8034 8.26632C18.3976 8.43477 18.9336 8.70349 19.4065 9.07363C19.8937 9.44091 20.2756 9.91644 20.5543 10.4894C20.8581 11.0839 21 11.7713 21 12.5348C21 13.0617 20.9287 13.5432 20.7731 13.9694L20.7709 13.9755C20.6212 14.3694 20.4132 14.7322 20.1482 15.0623C19.896 15.3806 19.5893 15.6618 19.2328 15.9076L19.2294 15.9099C18.9063 16.1287 18.5616 16.3319 18.1958 16.5197C17.9136 16.6669 17.6386 16.8207 17.3709 16.9809L17.3629 16.9858L17.3546 16.9903C17.1164 17.121 16.9061 17.2735 16.7217 17.4472C16.5616 17.6111 16.4277 17.804 16.3206 18.0295C16.3206 18.0294 16.3208 18.0291 16.3206 18.0295C16.3188 18.0346 16.303 18.0795 16.2831 18.1843C16.2639 18.285 16.2463 18.4105 16.2309 18.5493C16.1453 19.3237 15.5069 19.9969 14.6675 19.9969C13.847 19.9969 13.1344 19.3208 13.2183 18.4461C13.2763 17.8421 13.3865 17.126 13.5777 16.6994L13.5823 16.6895ZM16.3714 17.0903C16.5898 16.8833 16.8374 16.7038 17.1141 16.552C17.3908 16.3863 17.6748 16.2275 17.966 16.0757C18.3155 15.8962 18.6432 15.703 18.949 15.4959C19.2694 15.275 19.5388 15.0265 19.7573 14.7504C19.9903 14.4606 20.1723 14.143 20.3034 13.7979C20.4345 13.439 20.5 13.018 20.5 12.5348C20.5 11.8308 20.3689 11.2234 20.1068 10.7126C19.8592 10.2018 19.5243 9.78768 19.1019 9.47017C18.6796 9.13886 18.199 8.89728 17.6602 8.74543C17.1359 8.57978 16.6044 8.49695 16.0655 8.49695C15.0752 8.49695 14.165 8.73163 13.335 9.20098C12.7612 9.51586 12.2918 9.92637 11.9268 10.4325C11.6408 10.829 11.805 11.3649 12.2158 11.6299L12.3841 11.7385C12.7602 11.9811 13.2621 11.86 13.5534 11.5202C13.7573 11.2993 13.983 11.106 14.2306 10.9404C14.4782 10.7609 14.7476 10.6229 15.0388 10.5262C15.3301 10.4158 15.6505 10.3606 16 10.3606C16.3058 10.3606 16.6044 10.4089 16.8956 10.5055C17.1869 10.5884 17.4417 10.7195 17.6602 10.899C17.8786 11.0784 18.0534 11.2993 18.1845 11.5616C18.3301 11.8239 18.4029 12.1207 18.4029 12.452C18.4029 12.8799 18.2937 13.2526 18.0752 13.5702C17.8714 13.8877 17.6165 14.1638 17.3107 14.3984C17.0049 14.6331 16.6845 14.8402 16.3495 15.0196C16.0146 15.1853 15.7233 15.3371 15.4757 15.4752C14.7767 15.8755 14.2961 16.3518 14.034 16.904C13.8803 17.2467 13.7743 17.8863 13.7161 18.4939C13.6631 19.0463 14.1125 19.4969 14.6675 19.4969C15.2224 19.4969 15.673 19.046 15.7339 18.4944C15.7662 18.2022 15.8112 17.9366 15.8689 17.8151C16 17.539 16.1675 17.2974 16.3714 17.0903Z"></path>
    </symbol>
    <symbol id="map-peru" viewBox="0 0 512 342">
		<path d="M512 0H0V341.326H512V0Z" fill="#F0F0F0"></path> <path d="M170.663 0H0V341.337H170.663V0Z" fill="#D80027"></path> <path d="M512 0H341.337V341.337H512V0Z" fill="#D80027"></path>
    </symbol>
    <symbol id="premium" viewBox="0 0 32 32">
		<path fill-rule="evenodd" clip-rule="evenodd" d="M16 28C22.6274 28 28 22.6274 28 16C28 9.37258 22.6274 4 16 4C9.37258 4 4 9.37258 4 16C4 22.6274 9.37258 28 16 28ZM16 31C24.2843 31 31 24.2843 31 16C31 7.71573 24.2843 1 16 1C7.71573 1 1 7.71573 1 16C1 24.2843 7.71573 31 16 31Z"></path><path fill-rule="evenodd" clip-rule="evenodd" d="M14.1733 8.41383C14.878 6.83286 17.122 6.83285 17.8267 8.41383L19.2279 11.5572L22.6504 11.9184C24.3717 12.1001 25.0652 14.2343 23.7794 15.3931L21.2228 17.697L21.9369 21.0636C22.296 22.7569 20.4806 24.0759 18.9812 23.2111L16 21.4916L13.0188 23.2111C11.5194 24.0759 9.70395 22.7569 10.0631 21.0636L10.7772 17.697L8.22063 15.3931C6.93481 14.2343 7.62824 12.1001 9.34961 11.9184L12.7721 11.5572L14.1733 8.41383ZM16 11.6843L15.2774 13.3054C14.9867 13.9575 14.3705 14.4051 13.6606 14.4801L11.8955 14.6664L13.214 15.8546C13.7443 16.3325 13.9797 17.0569 13.8315 17.7552L13.4633 19.4915L15.0008 18.6047C15.6192 18.248 16.3808 18.248 16.9992 18.6047L18.5367 19.4915L18.1685 17.7552C18.0203 17.0569 18.2557 16.3325 18.786 15.8546L20.1045 14.6664L18.3394 14.4801C17.6295 14.4051 17.0133 13.9575 16.7226 13.3054L16 11.6843Z"></path>
    </symbol>
    <symbol id="to-register" viewBox="0 0 32 32">
		<path d="M2.5 3C3.32843 3 4 3.67157 4 4.5L4 27.5C4 28.3284 3.32843 29 2.5 29C1.67157 29 1 28.3284 1 27.5L1 4.5C1 3.67157 1.67157 3 2.5 3Z"></path><path d="M18.5 3C19.3284 3 20 3.67157 20 4.5V9.5C20 10.3284 19.3284 11 18.5 11C17.6716 11 17 10.3284 17 9.5V4.5C17 3.67157 17.6716 3 18.5 3Z"></path><path d="M18.5 21C19.3284 21 20 21.6716 20 22.5V27.5C20 28.3284 19.3284 29 18.5 29C17.6716 29 17 28.3284 17 27.5V22.5C17 21.6716 17.6716 21 18.5 21Z"></path><path d="M20 27.5C20 28.3284 19.3284 29 18.5 29H2.5C1.67157 29 1 28.3284 1 27.5C1 26.6716 1.67157 26 2.5 26L18.5 26C19.3284 26 20 26.6716 20 27.5Z"></path><path d="M20 4.5C20 5.32843 19.3284 6 18.5 6L2.5 6C1.67157 6 1 5.32843 1 4.5C1 3.67157 1.67157 3 2.5 3L18.5 3C19.3284 3 20 3.67157 20 4.5Z"></path><path d="M31 15.5C31 16.3284 30.3284 17 29.5 17L12.5 17C11.6716 17 11 16.3284 11 15.5C11 14.6716 11.6716 14 12.5 14L29.5 14C30.3284 14 31 14.6716 31 15.5Z"></path><path d="M23.4421 9.44212C24.0316 8.85263 24.9874 8.85263 25.5768 9.44212L30.5579 14.4232C31.1474 15.0126 31.1474 15.9684 30.5579 16.5579C29.9684 17.1474 29.0126 17.1474 28.4232 16.5579L23.4421 11.5768C22.8526 10.9874 22.8526 10.0316 23.4421 9.44212Z"></path><path d="M30.5579 14.4421C29.9684 13.8526 29.0126 13.8526 28.4232 14.4421L23.4421 19.4232C22.8526 20.0126 22.8526 20.9684 23.4421 21.5579C24.0316 22.1474 24.9874 22.1474 25.5768 21.5579L30.5579 16.5768C31.1474 15.9874 31.1474 15.0316 30.5579 14.4421Z"></path>
    </symbol>
    <symbol id="home" viewBox="0 0 1002.83 1101.3">
	<g id="Capa_x0020_1">
  <metadata id="CorelCorpID_0Corel-Layer"/>
  <g id="_1801704770080">
   <path d="M-0 435.81l0 398.32c0,106.94 51.82,200.44 143.69,242.92 57.84,26.73 96.18,24.19 158.56,24.19l0 -353.8c0,-45.42 19.46,-74.41 40.79,-99.79 19.47,-23.18 64.94,-45.48 97.45,-45.48l121.84 0c19.98,0 41.48,7.75 55.51,14.78 29.31,14.7 55.95,40.76 69.39,71.19 7.09,16.05 13.33,37.18 13.33,59.3l0 353.8c74.88,0 133.76,0.29 196.49,-47.19 66.59,-50.41 105.77,-114.87 105.77,-217.57l0 -400.66c0,-100.99 -37.35,-177.58 -119.49,-231.97 -69.21,-45.83 -142.09,-96.81 -211.34,-140.11 -53.2,-33.27 -90.31,-63.72 -170.58,-63.72 -75.23,0 -117.41,28.29 -170.58,63.73 -47.44,31.62 -93.15,62.1 -140.58,93.72 -103.91,69.27 -190.25,112.14 -190.25,278.35z"/>
   <path d="M400.66 749.77l0 351.46 201.5 0 0 -351.46c0,-25.1 -21.52,-49.2 -46.86,-49.2l-107.78 0c-25.35,0 -46.86,24.1 -46.86,49.2z"/>
  </g>
 </g>
    </symbol>
    <symbol id="next-secondary" viewBox="0 0 492.004 492.004">
		<path d="M382.678,226.804L163.73,7.86C158.666,2.792,151.906,0,144.698,0s-13.968,2.792-19.032,7.86l-16.124,16.12c-10.492,10.504-10.492,27.576,0,38.064L293.398,245.9l-184.06,184.06c-5.064,5.068-7.86,11.824-7.86,19.028c0,7.212,2.796,13.968,7.86,19.04l16.124,16.116c5.068,5.068,11.824,7.86,19.032,7.86s13.968-2.792,19.032-7.86L382.678,265c5.076-5.084,7.864-11.872,7.848-19.088C390.542,238.668,387.754,231.884,382.678,226.804z"></path>
    </symbol>
    <symbol id="prev-secondary" viewBox="0 0 492 492">
		<path d="M198.608,246.104L382.664,62.04c5.068-5.056,7.856-11.816,7.856-19.024c0-7.212-2.788-13.968-7.856-19.032l-16.128-16.12C361.476,2.792,354.712,0,347.504,0s-13.964,2.792-19.028,7.864L109.328,227.008c-5.084,5.08-7.868,11.868-7.848,19.084c-0.02,7.248,2.76,14.028,7.848,19.112l218.944,218.932c5.064,5.072,11.82,7.864,19.032,7.864c7.208,0,13.964-2.792,19.032-7.864l16.124-16.12c10.492-10.492,10.492-27.572,0-38.06L198.608,246.104z"></path>
    </symbol>
    <symbol id="search" viewBox="0 0 32 32">
		<path fill-rule="evenodd" clip-rule="evenodd" d="M12.5 20C16.6421 20 20 16.6421 20 12.5C20 8.35786 16.6421 5 12.5 5C8.35786 5 5 8.35786 5 12.5C5 16.6421 8.35786 20 12.5 20ZM12.5 23C18.299 23 23 18.299 23 12.5C23 6.70101 18.299 2 12.5 2C6.70101 2 2 6.70101 2 12.5C2 18.299 6.70101 23 12.5 23Z"></path><path d="M18.2982 18.2983C18.884 17.7125 19.8337 17.7125 20.4195 18.2983L29.548 27.4267C30.1338 28.0125 30.1338 28.9623 29.548 29.548C28.9622 30.1338 28.0125 30.1338 27.4267 29.548L18.2982 20.4196C17.7124 19.8338 17.7124 18.884 18.2982 18.2983Z"></path>
    </symbol>
    <symbol id="course" viewBox="0 0 7308.36 7661.56">
		<g id="Capa_x0020_1">
  <metadata id="CorelCorpID_0Corel-Layer"/>
  <path d="M488.77 3865.34l0 -3134.88c0,-142.08 101.41,-243.49 243.49,-243.49l5813.23 0c182.32,0 273.92,91.61 273.92,273.92l0 3104.45c0,182.32 -91.61,273.92 -273.92,273.92l-5813.23 0c-160.26,0 -243.49,-111.29 -243.49,-273.92zm-486.97 -3210.97l0 3317.5c0,323.54 330.82,654.37 654.37,654.37l5995.84 0c155.47,0 343.99,-95.57 451.39,-202.98 106.49,-106.49 202.98,-296.25 202.98,-451.39l0 -3317.5c0,-85.53 -35.96,-190.67 -65.57,-254.01 -102.58,-219.54 -351.38,-400.36 -588.8,-400.36l-5995.84 0c-85.53,0 -190.67,35.96 -254.01,65.57 -219.54,102.58 -400.36,351.38 -400.36,588.81z"/>
  <path d="M1462.72 6731.2c-17.41,-89.98 44.85,-262.76 132.75,-354.22 464.15,-483 1127.2,211.83 708.45,647.58 -319.25,332.22 -756.25,89.42 -819.46,-193.34 -4.97,-22.24 -4.5,-31.6 -8.7,-52.17 -10.68,-52.38 -7.05,-16.95 -13.03,-47.84zm-456.54 -273.92c-136.64,0 -790.52,-28.28 -883.05,30.02 -164.17,103.44 -164.17,323.48 0,426.93 92.53,58.3 746.41,30.02 883.05,30.02 42.55,182.65 124.06,279.2 221.48,402.45 335.08,423.96 1114.16,412.7 1437.61,8.77 99.72,-124.54 185.29,-228.2 227.93,-411.22l4047.96 0.01c113.45,0.15 179.46,15.09 252.97,-36.17 152.31,-106.22 152.31,-308.42 0,-414.64 -73.51,-51.27 -139.52,-36.32 -252.97,-36.17l-4047.96 0.01c-23.4,-100.44 -75.04,-204.18 -127.59,-283.29 -65.77,-99 -120.65,-149.38 -203.67,-222.43 -515.16,-453.29 -1402.99,-150.01 -1555.76,505.72z"/>
  <path d="M3288.86 2769.65l0 -913.07 426.1 334.79c44.43,34.7 106.72,76.59 136.96,121.74 -32.11,47.95 -215.58,185.37 -271.93,230.27 -96.12,76.58 -190.87,159.13 -291.14,226.27zm-486.97 -1339.17l0 1765.27c0,219.08 73.89,334.79 289.14,334.79 105.01,0 674.06,-495.25 760.89,-563.06l550.15 -439.01c305.32,-244.11 -17.89,-452.49 -187.03,-578.49 -130.5,-97.22 -242.37,-198 -373.98,-295.61l-560.84 -443.54c-82.14,-64.76 -120.57,-115.16 -250.07,-115.16 -166.25,0 -228.27,173.52 -228.27,334.79z"/>
 </g>
    </symbol>
    <symbol id="comunity" viewBox="0 0 19316.64 12855.21">
		<g id="Capa_x0020_1">
  <metadata id="CorelCorpID_0Corel-Layer"/>
  <path stroke-width="308.06" stroke-miterlimit="22.9256" d="M8710.45 6521.33c1850.34,0 3352.32,-236.89 4441.03,1206 715.58,948.38 589.1,1689.03 589.1,3254.69 -614.38,143.14 -1677.55,949.08 -4081.05,949.08 -2361.64,0 -3472.27,-807.25 -4081.05,-949.08 0,-1583.26 -131.11,-2260.24 569.04,-3227.3 506.39,-699.43 1356.3,-1233.39 2562.94,-1233.39zm4982.69 -3179.42c0,-905.3 741.97,-1708.34 1755.79,-1708.34 869.94,0 1660.9,756.9 1660.9,1755.79 0,858.6 -802.31,1660.9 -1660.9,1660.9 -965.58,0 -1755.79,-758.05 -1755.79,-1708.35zm-6453.76 0c0,-2089.85 2604.87,-3244.6 4117.99,-1697.85 1619.42,1655.44 254.73,4118.01 -1697.84,4118.01 -1287.64,0 -2420.15,-1132.52 -2420.15,-2420.16zm-3369.26 1708.35c-869.94,0 -1660.88,-756.92 -1660.88,-1755.82 0,-871.92 758.9,-1660.88 1755.79,-1660.88 885.3,0 1660.9,811.93 1660.9,1708.34 0,950.3 -790.23,1708.35 -1755.82,1708.35zm2609.99 -1993.08c0,801.55 3.72,1126.75 411.44,1866.35 289.42,525.04 598.05,669.36 774.91,933.44 -465.77,108.51 -536.74,196.49 -711.8,237.29 -249.39,-372.41 -923.45,-863.97 -1376.18,-901.64 137.87,-205.89 240.84,-187.24 520.66,-665.68 386.29,-660.5 393.03,-1669.41 17.26,-2339.85 -173.85,-310.21 -310.88,-448.36 -548.81,-684.99 -187.14,-186.15 -501.92,-383.98 -754.2,-479.6 -226.24,-85.74 -728.95,-210.5 -1017.24,-177.84 -489.14,55.45 -968.6,198.73 -1330.83,475.55 -79.25,60.55 -264.4,218.57 -328.88,288.02 -697.46,751.1 -964.27,1798.1 -481.54,2762.56 106.89,213.57 330.1,645.75 554.34,726.92l0 94.91c-307.67,71.67 -532.71,210.3 -769.58,369.31 -696.11,467.31 -1270.96,1314.43 -1270.96,2240.67 0,1876.17 -172.53,1617.82 663.56,1993.88 265.21,119.29 556.29,241.17 854.82,331.53 407.47,123.34 1613.6,565.77 1613.6,-142.52 0,-475.45 -923.9,-409.56 -1803.87,-758.68 -98.66,-39.14 -192.7,-79.18 -301.85,-125.23 -330.84,-139.51 -266.99,35.59 -266.99,-919.36 0,-681.6 197.83,-1245.2 533.04,-1602.41 312.33,-332.82 793.41,-722.86 1412.59,-722.86l2087.98 0c519.46,0 1121.43,354.82 1328.72,664.36 -1676.1,1122.35 -1518.53,2912.61 -1518.53,4650.5 0,441.75 997.86,747.64 1348.54,881.79 2265.05,866.48 4773.56,855.96 7044.07,13.08 1695.78,-629.5 1382.95,-529.36 1382.95,-2508.31 0,-1363.46 -702.77,-2490.79 -1518.54,-3037.06 207.28,-309.55 809.25,-664.36 1328.72,-664.36l2087.98 0c1041,0 1945.62,1003.41 1945.62,2325.27 0,966.31 137.39,762.05 -535.12,1030.86 -845.65,337.99 -1837.59,329.4 -1837.59,724.94 0,185.51 66.48,311.34 189.24,383.45 303.22,178.09 1089.65,-95.25 1387.57,-182.82 288.99,-84.96 1555.16,-510.26 1555.16,-817.53 0,-1213.39 156.86,-2289.96 -652.02,-3191.77 -378.94,-422.5 -804.21,-800.61 -1388.5,-936.74l0 -94.91c380.62,-137.78 1167.08,-1530.53 586.16,-2721.61 -869.63,-1783.06 -2882.92,-1905.97 -3920.89,-897.82 -734.64,713.53 -841.24,1142.77 -841.24,2100.9 0,862.04 649.35,1378.46 806.7,1613.44 -452.73,37.67 -1126.79,529.23 -1376.16,901.64 -175.09,-40.79 -246.05,-128.77 -711.83,-237.29 114.95,-171.64 269.83,-281.46 415.87,-438.3 355.92,-382.29 770.5,-1229.39 770.5,-1792.03 0,-1044.71 -141.22,-1731.09 -937.14,-2527.02 -268.28,-268.25 -469.28,-430.84 -818.11,-605.51 -1615.58,-808.87 -3502.89,-112.49 -4271.99,1423.63 -128.3,256.29 -331.61,762.47 -331.61,1139.45z"/>
 </g>
    </symbol>
    <symbol id="talleres" viewBox="0 0 32 32">
		<path fill-rule="evenodd" clip-rule="evenodd" d="M27 12H23V27H27V12ZM23 9C21.3431 9 20 10.3431 20 12V30H27C28.6569 30 30 28.6569 30 27V12C30 10.3431 28.6569 9 27 9H23Z"></path><path fill-rule="evenodd" clip-rule="evenodd" d="M20 17H16V27H20V17ZM16 14C14.3431 14 13 15.3431 13 17V30H23V14H16Z"></path><path fill-rule="evenodd" clip-rule="evenodd" d="M13 22H10V27H13V22ZM10 19C8.34315 19 7 20.3431 7 22V30H16V19H10Z"></path><path fill-rule="evenodd" clip-rule="evenodd" d="M7 25H4L4 27H7V25ZM4 22C2.34315 22 1 23.3431 1 25V27C1 28.6569 2.34315 30 4 30H10V22H4Z"></path><path d="M29.4656 2H23.5C23.2239 2 23 2.22386 23 2.5V6.5C23 6.77614 23.2239 7 23.5 7H29.4656C29.9496 7 30.1512 6.38111 29.7602 6.096L28.1255 4.904C27.8516 4.7043 27.8516 4.2957 28.1255 4.096L29.7602 2.904C30.1512 2.61889 29.9496 2 29.4656 2Z"></path><path d="M24 5C24.5523 5 25 5.44772 25 6V10C25 10.5523 24.5523 11 24 11C23.4477 11 23 10.5523 23 10V6C23 5.44772 23.4477 5 24 5Z"></path>
    </symbol>
    <symbol id="view" viewBox="0 0 13251.12 10655.81">
		<g id="Capa_x0020_1">
  <metadata id="CorelCorpID_0Corel-Layer"/>
  <g id="_2122664606640">
   <path d="M12549.38 10105.84l-1533.42 0c-185.2,0 -311.88,-223.42 -311.88,-481.23l0 -8593.4c0,-257.81 126.68,-481.23 311.88,-481.23l383.17 0c254.52,-4.61 304.35,-538.85 3.25,-549.97l-334.44 0c-203.37,0 -398.84,120.41 -513.11,249.47 -102.36,115.59 -240.61,405.11 -240.61,644.25l0 8868.38c0,465.07 355.64,893.72 727.73,893.72l1481.45 0c206.41,0 386.6,-132.28 500.79,-265.75 99.65,-116.46 226.93,-393.74 226.93,-627.97l0 -8868.38c0,-216.83 -136.68,-518.3 -226.78,-628.17 -112.5,-137.15 -319.07,-265.55 -526.94,-265.55l-292.47 0c-263.12,12.94 -272.99,537.05 3.26,549.97l341.19 0c218.9,0 311.88,262.98 311.88,549.98l0 8455.9c0,143.03 -23.93,300.42 -71.75,386.34 -42.15,75.75 -147.96,163.64 -240.14,163.64z"/>
   <path d="M9148.55 10239.97l-1533.42 0c-185.2,0 -311.88,-168.93 -311.88,-363.86l0 -6497.55c0,-194.93 126.68,-363.86 311.88,-363.86l1533.42 0c218.9,0 311.88,198.83 311.88,415.84l0 6393.59c0,108.15 -23.93,227.15 -71.75,292.12 -42.15,57.27 -147.96,123.73 -240.14,123.73zm-2235.16 -6965.37l0 6705.47c0,351.64 355.64,675.75 727.73,675.75l1481.45 0c206.41,0 386.6,-100.02 500.79,-200.94 99.65,-88.06 226.93,-297.71 226.93,-474.81l0 -6705.47c0,-163.95 -136.68,-391.89 -226.78,-474.96 -112.5,-103.71 -319.07,-200.79 -526.94,-200.79l-1429.46 0c-203.37,0 -398.84,91.04 -513.11,188.63 -102.36,87.4 -240.61,306.31 -240.61,487.12z"/>
   <path d="M3456.7 5821.64l0 2339.12c0,160.54 385.06,288.15 392.03,-75.79 7.79,-407.52 -61.61,-2155.34 53.45,-2363.63 44.66,-80.84 138.13,-159.6 256.25,-159.6l1533.43 0c180.99,0 311.88,176.49 311.88,363.86l0 3950.51c0,194.93 -126.69,363.86 -311.88,363.86l-1533.43 0c-535.88,0 -209.92,-1067.91 -332.47,-1304.91 -94.25,-182.28 -369.26,-88.73 -369.26,57.38l0 987.63c0,187.92 121.25,380.8 226.97,474.76 113.52,100.91 294.86,200.99 500.75,200.99l1481.44 0c205.9,0 387.22,-100.08 500.75,-200.99 105.71,-93.96 226.97,-286.84 226.97,-474.76l0 -4158.43c0,-328.65 -334.22,-675.75 -753.71,-675.75l-1429.47 0c-203.44,0 -398.75,91.03 -513.11,188.63 -96.62,82.45 -240.6,316.88 -240.6,487.12z"/>
   <path d="M389.86 9824.13l0 -1325.49c0,-227.87 133.47,-389.86 363.86,-389.86l1429.46 0c228.05,0 363.86,148.78 363.86,363.86l0 1403.47c0,194.93 -126.69,363.86 -311.88,363.86l-1533.42 0c-92.17,0 -198,-66.46 -240.14,-123.73 -47.82,-64.97 -71.75,-183.97 -71.75,-292.12zm-389.86 -1455.45l0 1611.39c0,329.15 337.67,675.75 727.73,675.75l1481.45 0c372.09,0 727.73,-324.1 727.73,-675.75l0 -1611.39c0,-349.52 -346.14,-675.75 -805.7,-675.75l-1325.49 0c-256.23,0 -401.23,72.86 -546.78,180.94 -103.8,77.08 -258.92,313.72 -258.92,494.8z"/>
  </g>
 </g>
    </symbol>
    <symbol id="date" viewBox="0 0 13123.2 13119.15">
		<g id="Capa_x0020_1">
  <metadata id="CorelCorpID_0Corel-Layer"/>
  <g id="_1258298709056">
   <path  d="M1349.11 11187.47l0 -5917.71 10424.97 0 0 5917.71c0,302.93 -279.63,582.57 -582.57,582.57l-9259.83 0c-304.7,0 -582.58,-272.82 -582.58,-582.57zm0 -8002.7c0,-149.25 135.82,-312.98 220.86,-392.37 108.91,-101.69 284.21,-159.54 484.36,-159.54l9014.53 0c411.76,0 705.21,296.92 705.21,551.91l0 735.88 -10424.97 0 0 -735.88zm1287.79 -2575.58l0 705.22c-885.21,0 -1391.15,-59.54 -2077.39,620.83 -347.15,344.17 -559.51,816.21 -559.51,1494.82l0 7542.77c0,1298.38 847.93,2146.32 2146.32,2146.32l8830.56 0c1298.38,0 2146.32,-847.93 2146.32,-2146.32l0 -7542.77c0,-912.69 -416.44,-1557.54 -1123.91,-1911.61 -514.9,-257.69 -938.58,-204.04 -1513,-204.04l0 -705.22c0,-773.98 -1318.45,-849.09 -1318.45,91.99l0 613.23 -5212.48 0c0,-489.56 104.26,-1241.84 -620.52,-1311.91 -344.37,-33.29 -697.93,271.37 -697.93,606.69z"/>
   <path d="M4599.25 9777.03c0,417.97 265.34,705.21 613.23,705.21l4660.57 0c807.55,0 833.34,-1318.45 -30.66,-1318.45l-4599.25 0c-328.5,0 -643.9,281.55 -643.9,613.23z"/>
   <path d="M2636.9 7170.79c0,430.68 280.49,705.22 643.9,705.22l4599.25 0c857.97,0 843.26,-1318.46 30.66,-1318.46l-4660.57 0c-317.38,0 -613.23,295.85 -613.23,613.23z"/>
  </g>
 </g>
    </symbol>
    <symbol id="twitter" viewBox="0 0 512 512">
	<path fill="currentColor" d="M459.37 151.716c.325 4.548.325 9.097.325 13.645 0 138.72-105.583 298.558-298.558 298.558-59.452 0-114.68-17.219-161.137-47.106 8.447.974 16.568 1.299 25.34 1.299 49.055 0 94.213-16.568 130.274-44.832-46.132-.975-84.792-31.188-98.112-72.772 6.498.974 12.995 1.624 19.818 1.624 9.421 0 18.843-1.3 27.614-3.573-48.081-9.747-84.143-51.98-84.143-102.985v-1.299c13.969 7.797 30.214 12.67 47.431 13.319-28.264-18.843-46.781-51.005-46.781-87.391 0-19.492 5.197-37.36 14.294-52.954 51.655 63.675 129.3 105.258 216.365 109.807-1.624-7.797-2.599-15.918-2.599-24.04 0-57.828 46.782-104.934 104.934-104.934 30.213 0 57.502 12.67 76.67 33.137 23.715-4.548 46.456-13.32 66.599-25.34-7.798 24.366-24.366 44.833-46.132 57.827 21.117-2.273 41.584-8.122 60.426-16.243-14.292 20.791-32.161 39.308-52.628 54.253z"></path>
    </symbol>
    <symbol id="youtube" viewBox="0 0 576 512">
		<path fill="currentColor" d="M549.655 124.083c-6.281-23.65-24.787-42.276-48.284-48.597C458.781 64 288 64 288 64S117.22 64 74.629 75.486c-23.497 6.322-42.003 24.947-48.284 48.597-11.412 42.867-11.412 132.305-11.412 132.305s0 89.438 11.412 132.305c6.281 23.65 24.787 41.5 48.284 47.821C117.22 448 288 448 288 448s170.78 0 213.371-11.486c23.497-6.321 42.003-24.171 48.284-47.821 11.412-42.867 11.412-132.305 11.412-132.305s0-89.438-11.412-132.305zm-317.51 213.508V175.185l142.739 81.205-142.739 81.201z"></path>
    </symbol>
    <symbol id="facebook" viewBox="0 0 320 512">
		<path fill="currentColor" d="M279.14 288l14.22-92.66h-88.91v-60.13c0-25.35 12.42-50.06 52.24-50.06h40.42V6.26S260.43 0 225.36 0c-73.22 0-121.08 44.38-121.08 124.72v70.62H22.89V288h81.39v224h100.17V288z"></path>
    </symbol>
    <symbol id="taller-card" viewBox="0 0 2336.7 2052.37">
		<g id="Capa_x0020_1">
  <metadata id="CorelCorpID_0Corel-Layer"/>
  <g id="_2157216361408">
   <path d="M871.7 1055.66c42.73,-22.61 72.46,-64.01 96.94,-90.17l53.66 -65 220.15 208.85c11.14,10.32 16.23,11.75 27.49,22.71 42.42,41.3 133.89,115.23 171.13,152.9l162.18 157.29c36.42,30.35 72.77,73.76 104.8,109.7 84.31,94.64 182.11,224.13 97.48,350.84 -15.08,22.57 -41.55,56.42 -62.14,70.21 -75.05,-17.48 -205.67,-119.75 -273.16,-174.1 -13.36,-10.76 -16.68,-13.93 -29.16,-25.61 -27.39,-25.63 -55.6,-43.94 -85.61,-83.25 -9.62,-12.6 -15.39,-16.75 -26.3,-28.47 -117.33,-126.12 -298.66,-395.39 -407.9,-541.39 -16.39,-21.9 -34.69,-42.3 -49.57,-64.52zm-529.41 -976.67c174.84,0 327.34,92.01 295.42,286.29 -8.75,53.24 -31.01,49.79 19.44,115.38 14.05,18.27 27.9,33.8 42.44,53.4 14.48,19.52 26.47,34.64 41.69,54.15l177.17 206.2c17.35,17.16 35.99,31.72 49.1,51.3 -11.28,21.32 -15.46,24.61 -30.53,42.49 -28.41,33.7 -76.55,85.09 -110.95,108.12 -16.34,-10.94 -145.23,-165.68 -169.92,-190.63l-79.97 -79.77c-22.46,-22.26 -144.52,-163.17 -151.74,-163.17 -23.38,0 -176.34,90.41 -284.08,-30.83 -67.22,-75.65 -62.78,-143.1 -62.78,-238.44 0,-12.85 1.97,-8.45 9.13,-13.69 3.84,16.48 19.75,38.79 29.89,52.26 108.1,143.61 287.69,94.09 351.66,-13 66.09,-110.63 -17.51,-188.06 -111.72,-231.51 -0.97,-0.45 -2.22,-0.94 -3.15,-1.41l-11.11 -7.15zm73.02 168.86c0,55.82 -116.53,139.39 -207.46,70.55 -80.95,-61.28 -49.46,-157.26 -134.83,-157.26 -70.51,0 -73.02,140.46 -73.02,196.25 0,157.72 109.64,314.91 282.96,314.91 47.13,0 85.89,-14.12 123.22,-22.82 26.73,39.92 246.27,262.7 295.24,320.88 125.05,148.59 156.03,191.92 269.99,346.13 29.77,40.29 55.93,78.73 86.15,119.22l180.36 234.95c11.66,11.73 12.93,15.12 23.05,27.15 9.04,10.75 14.95,14.25 24.11,26.1 62.34,80.6 242.4,228.29 339.62,276.5 131.65,65.29 135.71,91.21 243.89,-57.39 103.35,-141.97 45.19,-247.13 -41.79,-363.77l-93.66 -111.71c-9.47,-9.38 -15.88,-15.58 -25.2,-25l-685.72 -651.5c-21.2,-26.56 -52.03,-52.4 -76.41,-78.76l-234.99 -285.65c-12.48,-17.36 1.51,-28.54 5.92,-78.3 31.09,-351.32 -430.87,-391.13 -477.08,-317.21 -53.14,85 89.98,126.14 112.05,138.86 27.79,16.01 63.61,38.46 63.61,77.87z"/>
   <path d="M1423.93 270.67c0,-38.39 105.93,-139.45 173.43,-155.17l238.46 240.74c16.87,16.89 24.73,23.6 43.15,39 36.41,30.43 107.13,114.04 163.13,156.34 38.45,29.04 13.47,45.52 11.24,129.94 -1.34,50.76 27.56,56.52 73.42,91.18 74.9,56.61 44.63,22.82 123.22,22.82 -5.26,22.57 -13.36,33.51 -30.71,51.44 -15.47,16 -26.86,27.84 -44.88,41.83 -6.88,5.34 -102.4,82.07 -102.4,52.77 0,-29.34 22.82,-30.05 22.82,-73.02 0,-9.81 -54.89,-77.72 -64.55,-90.62 -37.02,-49.41 -31.18,-43.94 -108.16,-51.57 -98.28,-9.75 -164.31,-43.77 -225.79,-93.68 -35.65,-28.95 -85.98,-79.87 -114.68,-118.08 -23.23,-30.94 -157.71,-229.02 -157.71,-243.91zm912.77 515.95l0 15.79c-2.51,32.76 -19.67,67.07 -38.3,91.72 -13.25,17.53 -46.62,50.6 -64.77,63.02 -46.37,31.74 -114,80.25 -175.33,80.25 -30.09,0 -73.02,-54.32 -73.02,-91.28 0,-68.47 24.67,-49.47 5.07,-77.66 -5.7,-8.2 -9.07,-11.34 -16.15,-20.79 -35.57,-47.47 -19.8,-28.36 -72.46,-37.08 -183.11,-30.29 -228.92,-102.95 -258.75,-110.92 -14.68,9.83 -153.07,169.37 -176.78,192.89 -21.54,21.36 -90.27,102.24 -106.18,112.89 -17.18,-4 -59.7,-33.68 -68.46,-45.64 5.24,-19.63 22.54,-28.23 35.43,-42.16l252.1 -281.88c-15.92,-10.66 -23.97,-25.56 -37.65,-39.93 -13.4,-14.08 -19.63,-27.11 -35.37,-37.66 -69.07,60.04 -143.93,115 -217.81,170.12l-133.61 99.15c-21.21,-14.2 -38.83,-48.07 -63.89,-54.77 12.78,-19.09 155.86,-120.41 185.83,-142.77 20,-14.92 166.64,-125.87 179.28,-144.75 -10.53,-19.91 -21.51,-33.15 -33.4,-53.31l-66.14 -107.29c-8.47,-14.04 -28.24,-40.7 -28.24,-58.47 0,-28.26 59.24,-104.81 76.48,-124.33 43.39,-49.12 120.06,-98.62 184.58,-116.98 36.93,-10.51 43.26,4.6 64.12,25.66 99.71,100.67 234.96,226.57 321.76,326.31l132.13 118.88c70.21,58.65 35.47,83.65 33.29,181.21 9.86,6.6 21.75,15.61 31.88,23.1 29.66,21.92 5.86,8.85 36.58,8.85 37.42,0 65.55,-1 96.69,21.97 20.29,14.97 29.38,34.67 31.1,55.85z"/>
   <path d="M374.24 1822.39c-61.27,-14.27 -175.94,-134.59 -187.12,-182.55 12.44,-18.58 25.9,-32.75 42.28,-49l43.29 -47.99c81.83,-81.35 125.25,-125.46 209.99,-200.76 10.33,-9.18 14.36,-10.39 25.06,-20.58 11.13,-10.6 42.06,-39.13 53.62,-42.22 30.53,20.45 158.87,212.7 168.86,255.58l-172.25 147.22c-28.99,25.83 -58.76,46 -88.94,70.8l-94.79 69.5zm0 95.84c28.38,0 129.93,-82.43 157.17,-102.97l211.42 -176.51c13.12,-12.15 18.93,-20.1 33.03,-30.86 44.77,-34.17 136.95,-140.44 173.43,-159.74 -7.9,-33.89 -27.89,-53.63 -50.2,-73.02 -26.07,17.46 -58.7,58.83 -86.71,77.59 -37.49,-70.85 -71.75,-119.72 -128.93,-176.85 -14.95,-14.94 -43.63,-35.57 -49.06,-55.91 8.83,-13.18 84.16,-71.27 100.4,-82.15 -5.89,-25.27 -28.84,-49.89 -41.08,-73.02 -19.87,5.31 -211.56,159.8 -243.08,190.49 -12.54,12.21 -16.42,14.44 -29.4,25.36 -11.89,10 -16.36,16.58 -28.73,26.03 -11.88,9.07 -17.48,15.08 -28.49,26.28 -12.3,12.51 -16.58,14.48 -29.5,25.27l-189.57 193.79c-10.69,12.13 -12.86,17.32 -25.16,29.6 -16.98,16.96 -39.08,42.35 -27.05,70.04 34.52,79.5 105.27,157.31 173.32,210.47 17.28,13.5 88.66,56.1 108.2,56.1z"/>
  </g>
 </g>
    </symbol>
    <symbol id="tutorial" viewBox="0 0 1975.86 1400.95">
		<g id="Capa_x0020_1">
  <metadata id="CorelCorpID_0Corel-Layer"/>
  <g id="_2157212214048">
   <path d="M142.67 747.95c0,-85.9 -1.57,-202.66 11.15,-287.17 12.06,-80.14 -8.99,-141.8 82.21,-233.4l6.72 -6.25c94.76,-87.02 167.47,-58.81 298.31,-73.5l733.71 -4.32c47.11,5.29 101.62,-0.23 151.72,3.92 22.95,1.9 40.02,4.2 69.4,4.09 30.94,-0.11 48.71,3.82 73.37,4.45 63.22,1.64 81.99,6.39 122.11,33.53 14.48,9.8 29.4,20.08 41.4,32.1 80.7,80.81 82.85,187.58 92.08,297.03 12.47,148.02 11.37,262.49 -0.75,410.73l-18.59 150.02c-24.68,82.77 -88.82,143 -175.84,161.39 -41.54,8.78 -106.42,7.28 -155.54,8.75l-160.05 8.56c-50.69,4.2 -115.99,-0.59 -168.56,0.06 -26.85,0.33 -45.21,4.57 -77.64,4.5l-168.62 0c-33.94,0.08 -52.79,-4.44 -81.99,-4.48 -46.66,-0.06 -124.63,4.73 -166.94,-1.68 -54.58,-8.26 -246.15,-1.26 -319.22,-18 -81.53,-18.69 -149.3,-88.35 -167.9,-169.33 -10.16,-44.25 -6.79,-103.4 -14.4,-154.22l-6.14 -166.79zm-142.67 -38.91c0,57.87 11.9,328.63 24.98,385.74 36.57,159.63 167.4,271.54 325.79,288.13l198.27 9.25c69.21,-0.36 130.23,4.49 203.33,4.19 33.68,-0.14 60.52,4.44 99.34,4.43l311.46 0.17c23.31,-0.29 25.47,-3.99 47.24,-4.64 32.31,-0.97 67.04,0.03 99.59,0.16 37.69,0.14 57.4,-4.5 95.09,-4.35l142.83 -4.17c75.44,-2.26 149.7,-16.01 208.89,-46.19 80.42,-41.01 154.27,-122.53 181.68,-216.07 7.13,-24.35 14.89,-55.86 15.69,-83.75 2.3,-80.39 21.62,-153.98 21.62,-281.02 0,-92.43 1.69,-183.47 -11.09,-274.25 -7.64,-54.24 -12.53,-142.99 -21.91,-176.97 -40.79,-147.8 -155.92,-255.77 -300.9,-287.08 -63.84,-13.79 -316.61,-18.45 -379.56,-18.19 -32.97,0.13 -57.3,-4.45 -95.01,-4.43l-479.75 4.47c-69.83,0.1 -128.99,4.5 -194.76,4.12 -36.81,-0.21 -147.23,5.45 -184.01,14.87 -49.46,12.67 -98.85,38.48 -132.57,66.3 -20.66,17.04 -33.38,28.12 -52.02,47.42 -46.09,47.73 -86.87,128.22 -100.77,197.55 -11.06,55.17 -23.44,322.04 -23.44,374.31z"/>
   <path d="M722.01 458.28c0,27.81 8.06,45.86 27.66,58.8 52.83,34.88 264.84,131.23 327.69,169.5l55.37 31.1c-16.75,3.9 -264.13,133.99 -272.37,138.35 0,-76.7 22.45,-211.85 -69.17,-211.85 -46.14,0 -73.5,34.69 -73.5,82.15l0 242.11c0,41.4 28.58,73.5 73.5,73.5 30.21,0 55.01,-19.66 76.44,-31.65l145.5 -75c13.98,-6.99 24.96,-12.13 37.53,-18.68 34.23,-17.82 274.24,-140.9 286.07,-154.91 26.6,-31.49 24.77,-87.08 -26.6,-113.32l-291.24 -149.75c-50.91,-25.45 -199.8,-109.53 -227.7,-109.53 -36.34,0 -69.17,30.15 -69.17,69.17z"/>
  </g>
 </g>
    </symbol>
    <symbol id="graduacion" viewBox="0 0 5853.65 4792.13">
		<g id="Capa_x0020_1">
  <metadata id="CorelCorpID_0Corel-Layer"/>
  <g id="_2157218020736">
   <path d="M1600.61 2420.75l978.34 393.61c396.59,158.62 297.65,159.32 687.59,3.26l986.51 -396.87 0 926.07c-731.7,387.17 -1371.32,517.3 -2208.29,207.53l-444.14 -207.53 0 -926.07zm4253.04 -853.94l0 62.16c-10.49,85.57 -65,169.08 -171.21,220.42l-892.05 354.14c0,323.93 0,647.86 0,971.8 0,482.85 53.37,476.36 -312.5,659.3 -354.56,177.28 -656.99,319.97 -1064.32,387.65 -793.68,131.88 -1361.37,-49.44 -2045.43,-391.47 -362.02,-181.01 -304.88,-180.99 -304.88,-666.92 0,-320.12 0,-640.24 0,-960.36l-525.92 -205.79c0,278.2 0,556.4 0,834.6 0,130.78 17.12,305.17 -22.68,400.34 -119.68,286.14 -514.66,178.38 -514.66,-80.21l0 -1566.31c0,-78.22 49.09,-153.39 94.53,-191.29 59.51,-49.64 471.82,-246.23 557.14,-288.89 249.63,-124.81 494.09,-247.04 746.95,-373.47 256.05,-128.03 498.52,-249.26 754.57,-377.29 132.98,-66.49 657.57,-348.75 764.44,-355.09 109.56,-6.5 645.81,286.59 775.19,351.28 249.63,124.81 494.09,247.04 746.95,373.47 103.81,51.9 1246.06,611.91 1313.01,664.89 57.7,45.66 92.6,109.7 100.86,177.05zm-926.07 7.91c-38.5,8.97 -85.33,31.86 -124.12,47.37 -39.57,15.82 -76.81,30.71 -122.51,48.99 -88.07,35.22 -167.3,63.7 -252.52,101.9l-1501.61 597.11 -1493.81 -593.47c-85.26,-38.23 -164.61,-67.25 -252.14,-102.28l-254.81 -99.61 118.14 -64.79c306.05,-152.96 1855.9,-936.11 1882.62,-936.11 7.51,0 1959.47,965.02 2000.76,1000.9z"/>
   <path d="M-0 3975.63l0 571.65c0,312.09 537.35,352.28 537.35,-34.3l0 -503.05c0,-87.02 -31.5,-150.97 -76.64,-197.75 -111.16,-115.19 -270.5,-113.55 -377.7,-16.49 -36.39,32.95 -83.01,113.46 -83.01,179.94z"/>
  </g>
 </g>
    </symbol>
    <symbol id="clock" viewBox="0 0 32 32">
		<path fill-rule="evenodd" clip-rule="evenodd" d="M16 27C22.0751 27 27 22.0751 27 16C27 9.92487 22.0751 5 16 5C9.92487 5 5 9.92487 5 16C5 22.0751 9.92487 27 16 27ZM16 30C23.732 30 30 23.732 30 16C30 8.26801 23.732 2 16 2C8.26801 2 2 8.26801 2 16C2 23.732 8.26801 30 16 30Z"></path><path d="M15.5 9C16.3284 9 17 9.67157 17 10.5V17.5C17 18.3284 16.3284 19 15.5 19C14.6716 19 14 18.3284 14 17.5V10.5C14 9.67157 14.6716 9 15.5 9Z"></path><path d="M14 17.5C14 16.6716 14.6716 16 15.5 16H20.5C21.3284 16 22 16.6716 22 17.5C22 18.3284 21.3284 19 20.5 19H15.5C14.6716 19 14 18.3284 14 17.5Z"></path>
    </symbol>
    <symbol id="eye-open" viewBox="0 0 5466.51 3086.58">
		<g id="Capa_x0020_1">
  <metadata id="CorelCorpID_0Corel-Layer"/>
  <path d="M3531.15 480.99c176.89,14.72 694.05,320.49 851.67,439.29 126.62,95.43 243.37,180.6 353.85,291.63l163.27 153.14c51.35,64.75 113.25,109.66 149.98,179.09 -91.93,137.29 -419.53,425.02 -555.14,533.32 -42.14,33.66 -85.48,66.48 -130.68,97.13 -398.52,270.21 -926.03,536.85 -1415.16,559.25 -322.7,14.78 -275.11,20.11 -608.36,-24.45 -126.83,-16.96 -249.01,-54.25 -355.02,-87.95 -364.79,-115.99 -560.76,-231.97 -874.45,-441.82l-481.45 -404.49 -212 -230.98 186.59 -218.41c31.35,-27.45 44.59,-31.58 76.28,-62.95 386.25,-382.17 829.23,-653.77 1355.48,-821.46 99.03,-31.56 116.71,-42.41 184.12,34.43 247.88,282.57 -74.58,716.07 -431.86,520.46 -44.76,-24.51 -43.66,-35.48 -79.65,-59.58 -80.43,345.25 24.68,775.45 298.24,1005.37 299.15,251.42 603.03,363.78 1020.89,250.48 86.12,-23.35 160.89,-56.51 230.5,-98.57 42.45,-25.65 61.21,-36.44 99.47,-65.07 419.59,-313.92 552.69,-851.99 308.59,-1341.28 -40.41,-80.99 -88.7,-137.18 -135.16,-206.57zm0 0l0 0zm-3531.15 1063.14c0,78.83 434.86,524.71 493.61,569.54 50.98,38.91 86.47,80.74 141.08,124.71 27.07,21.79 36.94,36.8 66.59,59.97 477.3,372.93 935.55,618.31 1537.47,740.69 177.8,36.15 219.97,28.83 368.52,36.48 172.98,8.91 12.96,19.29 241.1,0.72 149.75,-12.19 149.01,7.24 369.97,-35.03 447.9,-85.69 768.36,-231.97 1147.56,-459.81 109.76,-65.96 209.27,-140.47 313.4,-218.17 221.03,-164.93 431.32,-370.51 614.14,-575.57 21.66,-24.29 41.5,-51.72 61.9,-77.33 140,-175.76 151.24,-153.18 13.91,-320.98l-373.12 -398.92c-235.79,-237.2 -600.38,-494.91 -908.09,-648.65 -329.58,-164.67 -839.06,-341.73 -1215.02,-341.73 -327.07,0 -405.06,-4.08 -722.46,62.23 -275.81,57.63 -515.47,151.76 -762.56,275.27 -117.41,58.68 -222.94,118.68 -330.07,188.84 -207.45,135.86 -410.25,286.3 -580.11,457.72l-133.19 119.94c-26.42,28.89 -29.89,41.23 -56.52,70.04 -60.87,65.81 -288.09,297.18 -288.09,370.04z"/>
 </g>
    </symbol>
    <symbol id="eye-closed" viewBox="0 0 4243.07 1472">
		<g id="Capa_x0020_1">
  <metadata id="CorelCorpID_0Corel-Layer"/>
  <path d="M103.26 131.42c0,104.59 133.57,153.66 168.96,206.52l-208.36 354.88c-19.11,29.48 -63.87,92.33 -63.87,133.27 0,137.13 167.83,205.17 256.7,59.56 29.44,-48.25 54.37,-88.06 81.78,-134.13l159.05 -263.39c21.74,5.81 384.36,216.16 544.47,253.46l-71.14 229.26c-12.57,43.75 -20.27,76.29 -33.3,116.9 -11.93,37.2 -26.98,71.5 -26.98,123.22 0,62.73 66.76,122.04 131.42,122.04 115.91,0 135.33,-119.36 161.57,-213.93 11.88,-42.78 29.9,-100.52 43.77,-143.97 11.59,-36.25 37.89,-111.64 38.73,-149.02 155.06,36.12 403.36,92.56 572.87,93.62 49.28,0.31 52.72,8.72 93.63,9.64 0,132.09 -22.12,417.79 32.96,492.72 46.67,63.47 151.84,67.19 203.63,6.71 17.41,-20.34 35.64,-68.25 35.64,-105.17l0 -403.66c119.25,0 248.39,-16.71 348.27,-36.6 57.19,-11.41 278.43,-56.94 318.23,-76.04l157.77 424.25c80.44,152.43 255.27,65.38 255.27,-39.37 0,-54.32 -57.56,-182.14 -76.19,-233.59 -19.41,-53.62 -79.64,-190.77 -83.39,-235.78 51.87,-12.08 127.11,-45.72 175.22,-68.84l328.62 -159.53c44.87,-24.09 110.74,-77.08 162.66,-81.4 7.02,26.3 23.56,41.22 40.2,63.07 18.46,24.21 29.58,39.34 48.3,64.34 77.66,103.59 135.83,220.48 242.36,194.94 76.77,-18.41 100.95,-67.86 100.95,-143.99 0,-78.03 -199.1,-265.79 -215.9,-337.94 133.08,-35.53 85.1,-253.46 -46.94,-253.46 -60.65,0 -363.36,214.64 -503.9,284.63 -320.6,159.69 -439.7,220.62 -804.64,312.45 -89.91,22.63 -175.09,36.87 -269.03,50.13 -44.32,6.26 -103.3,11.43 -142.86,16.73 -50.59,6.79 -104.1,-1.84 -154.47,5.13 -138.58,19.16 -423.05,-18.13 -575.97,-48.71 -95.78,-19.16 -172,-41.59 -254.66,-64.51 -257.26,-71.33 -580.49,-239.67 -794.52,-397.67 -17.67,-13.06 -32.62,-20.84 -49.86,-34.63 -59.03,-47.21 -181.24,-193.05 -286.87,-83.35 -13.47,13.97 -40.19,69.49 -40.19,91.23z"/>
 </g>
    </symbol>
    <symbol id="whatsApp" viewBox="0 0 308 308">
		<g id="XMLID_468_">
		<path id="XMLID_469_" d="M227.904,176.981c-0.6-0.288-23.054-11.345-27.044-12.781c-1.629-0.585-3.374-1.156-5.23-1.156
			c-3.032,0-5.579,1.511-7.563,4.479c-2.243,3.334-9.033,11.271-11.131,13.642c-0.274,0.313-0.648,0.687-0.872,0.687
			c-0.201,0-3.676-1.431-4.728-1.888c-24.087-10.463-42.37-35.624-44.877-39.867c-0.358-0.61-0.373-0.887-0.376-0.887
			c0.088-0.323,0.898-1.135,1.316-1.554c1.223-1.21,2.548-2.805,3.83-4.348c0.607-0.731,1.215-1.463,1.812-2.153
			c1.86-2.164,2.688-3.844,3.648-5.79l0.503-1.011c2.344-4.657,0.342-8.587-0.305-9.856c-0.531-1.062-10.012-23.944-11.02-26.348
			c-2.424-5.801-5.627-8.502-10.078-8.502c-0.413,0,0,0-1.732,0.073c-2.109,0.089-13.594,1.601-18.672,4.802
			c-5.385,3.395-14.495,14.217-14.495,33.249c0,17.129,10.87,33.302,15.537,39.453c0.116,0.155,0.329,0.47,0.638,0.922
			c17.873,26.102,40.154,45.446,62.741,54.469c21.745,8.686,32.042,9.69,37.896,9.69c0.001,0,0.001,0,0.001,0
			c2.46,0,4.429-0.193,6.166-0.364l1.102-0.105c7.512-0.666,24.02-9.22,27.775-19.655c2.958-8.219,3.738-17.199,1.77-20.458
			C233.168,179.508,230.845,178.393,227.904,176.981z"/>
		<path id="XMLID_470_" d="M156.734,0C73.318,0,5.454,67.354,5.454,150.143c0,26.777,7.166,52.988,20.741,75.928L0.212,302.716
			c-0.484,1.429-0.124,3.009,0.933,4.085C1.908,307.58,2.943,308,4,308c0.405,0,0.813-0.061,1.211-0.188l79.92-25.396
			c21.87,11.685,46.588,17.853,71.604,17.853C240.143,300.27,308,232.923,308,150.143C308,67.354,240.143,0,156.734,0z
			M156.734,268.994c-23.539,0-46.338-6.797-65.936-19.657c-0.659-0.433-1.424-0.655-2.194-0.655c-0.407,0-0.815,0.062-1.212,0.188
			l-40.035,12.726l12.924-38.129c0.418-1.234,0.209-2.595-0.561-3.647c-14.924-20.392-22.813-44.485-22.813-69.677
			c0-65.543,53.754-118.867,119.826-118.867c66.064,0,119.812,53.324,119.812,118.867
			C276.546,215.678,222.799,268.994,156.734,268.994z"/>
	</g>
	<g>
	</g>
	<g>
	</g>
	<g>
	</g>
	<g>
	</g>
	<g>
	</g>
	<g>
	</g>
	<g>
	</g>
	<g>
	</g>
	<g>
	</g>
	<g>
	</g>
	<g>
	</g>
	<g>
	</g>
	<g>
	</g>
	<g>
	</g>
	<g>
	</g>
    </symbol>
    <symbol id="--" viewBox="0 0 32 32">
		
    </symbol>
</svg>