<svg xmlns="http://www.w3.org/2000/svg">
    <symbol id="dropdown" viewBox="0 0 32 32">
        <path d="M2.60849 9.91421C3.38954 9.13317 4.65587 9.13317 5.43692 9.91421L17.4095 21.8868C18.1905 22.6678 18.1905 23.9342 17.4095 24.7152C16.6284 25.4963 15.3621 25.4963 14.5811 24.7152L2.60849 12.7426C1.82744 11.9616 1.82744 10.6953 2.60849 9.91421Z"></path><path d="M29.4142 9.91421C28.6332 9.13317 27.3668 9.13317 26.5858 9.91421L14.5962 21.9038C13.8151 22.6849 13.8151 23.9512 14.5962 24.7322C15.3772 25.5133 16.6436 25.5133 17.4246 24.7322L29.4142 12.7426C30.1953 11.9616 30.1953 10.6953 29.4142 9.91421Z"></path>
    </symbol>
    <symbol id="menu" viewBox="0 0 32 32">
       <path d="M2 7.5C2 6.67157 2.67157 6 3.5 6H28.5C29.3284 6 30 6.67157 30 7.5C30 8.32843 29.3284 9 28.5 9H3.5C2.67157 9 2 8.32843 2 7.5Z"></path><path d="M2 24.5C2 23.6716 2.67157 23 3.5 23H28.5C29.3284 23 30 23.6716 30 24.5C30 25.3284 29.3284 26 28.5 26H3.5C2.67157 26 2 25.3284 2 24.5Z"></path><path d="M2 16C2 15.1716 2.67157 14.5 3.5 14.5H28.5C29.3284 14.5 30 15.1716 30 16C30 16.8284 29.3284 17.5 28.5 17.5H3.5C2.67157 17.5 2 16.8284 2 16Z"></path>
    </symbol>
    <symbol id="code" viewBox="0 0 24 24">
       <path fill-rule="evenodd" clip-rule="evenodd" d="M14.4464 2.03283C15.0309 2.17896 15.3863 2.77125 15.2402 3.35575L10.8765 20.8103C10.7304 21.3948 10.1381 21.7502 9.5536 21.604C8.96909 21.4579 8.61372 20.8656 8.75984 20.2811L13.1235 2.82658C13.2696 2.24208 13.8619 1.8867 14.4464 2.03283ZM6.22593 6.68341C6.65196 7.10944 6.65196 7.80017 6.22593 8.22619L2.63369 11.8184L6.22593 15.4107C6.65196 15.8367 6.65196 16.5274 6.22593 16.9535C5.79991 17.3795 5.10918 17.3795 4.68316 16.9535L0.31952 12.5898C-0.106507 12.1638 -0.106507 11.4731 0.31952 11.0471L4.68316 6.68341C5.10918 6.25739 5.79991 6.25739 6.22593 6.68341ZM17.7741 6.68341C18.2001 6.25739 18.8908 6.25739 19.3168 6.68341L23.6805 11.0471C24.1065 11.4731 24.1065 12.1638 23.6805 12.5898L19.3168 16.9535C18.8908 17.3795 18.2001 17.3795 17.7741 16.9535C17.348 16.5274 17.348 15.8367 17.7741 15.4107L21.3663 11.8184L17.7741 8.22619C17.348 7.80017 17.348 7.10944 17.7741 6.68341Z"></path>
    </symbol>
    <symbol id="play" viewBox="0 0 320.001 320.001">
		<path d="M295.84,146.049l-256-144c-4.96-2.784-11.008-2.72-15.904,0.128C19.008,5.057,16,10.305,16,16.001v288
	c0,5.696,3.008,10.944,7.936,13.824c2.496,1.44,5.28,2.176,8.064,2.176c2.688,0,5.408-0.672,7.84-2.048l256-144
	c5.024-2.848,8.16-8.16,8.16-13.952S300.864,148.897,295.84,146.049z"/>
		<g>
		</g>
		<g>
		</g>
		<g>
		</g>
		<g>
		</g>
		<g>
		</g>
		<g>
		</g>
		<g>
		</g>
		<g>
		</g>
		<g>
		</g>
		<g>
		</g>
		<g>
		</g>
		<g>
		</g>
		<g>
		</g>
		<g>
		</g>
		<g>
		</g>
    </symbol>
    <symbol id="external-link" viewBox="0 0 100 100">
		<path fill="currentColor" d="M18.8,85.1h56l0,0c2.2,0,4-1.8,4-4v-32h-8v28h-48v-48h28v-8h-32l0,0c-2.2,0-4,1.8-4,4v56C14.8,83.3,16.6,85.1,18.8,85.1z"></path> <polygon fill="currentColor" points="45.7,48.7 51.3,54.3 77.2,28.5 77.2,37.2 85.2,37.2 85.2,14.9 62.8,14.9 62.8,22.9 71.5,22.9"></polygon>
    </symbol>
	<symbol id="check" viewBox="0 -46 417.81333 417">
		<path d="m159.988281 318.582031c-3.988281 4.011719-9.429687 6.25-15.082031 6.25s-11.09375-2.238281-15.082031-6.25l-120.449219-120.46875c-12.5-12.5-12.5-32.769531 0-45.246093l15.082031-15.085938c12.503907-12.5 32.75-12.5 45.25 0l75.199219 75.203125 203.199219-203.203125c12.503906-12.5 32.769531-12.5 45.25 0l15.082031 15.085938c12.5 12.5 12.5 32.765624 0 45.246093zm0 0"/>
    </symbol>
	<symbol id="check-list" viewBox="0 0 15 16">
		<path fill-rule="evenodd" clip-rule="evenodd" d="M7.5 15.5C11.6421 15.5 15 12.1421 15 8C15 3.85786 11.6421 0.5 7.5 0.5C3.35786 0.5 0 3.85786 0 8C0 12.1421 3.35786 15.5 7.5 15.5ZM7.50001 14.4491C11.0617 14.4491 13.9491 11.5617 13.9491 8C13.9491 4.43828 11.0617 1.55094 7.50001 1.55094C3.9383 1.55094 1.05095 4.43828 1.05095 8C1.05095 11.5617 3.9383 14.4491 7.50001 14.4491Z"></path><rect x="4.21875" y="9.25635" width="0.9375" height="3.28125" rx="0.46875" transform="rotate(-57.7092 4.21875 9.25635)"></rect><rect width="0.9375" height="7.03125" rx="0.46875" transform="matrix(0.845348 0.534217 0.534217 -0.845348 6.20007 10.5084)"></rect>  
    </symbol>
    <symbol id="download" viewBox="0 0 24 24">
		<path d="m12 16c-.205 0-.401-.084-.542-.232l-5.25-5.5c-.455-.476-.117-1.268.542-1.268h2.75v-5.75c0-.689.561-1.25 1.25-1.25h2.5c.689 0 1.25.561 1.25 1.25v5.75h2.75c.659 0 .997.792.542 1.268l-5.25 5.5c-.141.148-.337.232-.542.232z"/><path d="m22.25 22h-20.5c-.965 0-1.75-.785-1.75-1.75v-.5c0-.965.785-1.75 1.75-1.75h20.5c.965 0 1.75.785 1.75 1.75v.5c0 .965-.785 1.75-1.75 1.75z"/>
    </symbol>
    <symbol id="book" viewBox="0 0 296.999 296.999">
		<g>
	<g>
		<g>
			<path d="M45.432,35.049c-0.008,0-0.017,0-0.025,0c-2.809,0-5.451,1.095-7.446,3.085c-2.017,2.012-3.128,4.691-3.128,7.543
				v159.365c0,5.844,4.773,10.61,10.641,10.625c24.738,0.059,66.184,5.215,94.776,35.136V84.023c0-1.981-0.506-3.842-1.461-5.382
				C115.322,40.849,70.226,35.107,45.432,35.049z"/>
			<path d="M262.167,205.042V45.676c0-2.852-1.111-5.531-3.128-7.543c-1.995-1.99-4.639-3.085-7.445-3.085c-0.009,0-0.018,0-0.026,0
				c-24.793,0.059-69.889,5.801-93.357,43.593c-0.955,1.54-1.46,3.401-1.46,5.382v166.779
				c28.592-29.921,70.038-35.077,94.776-35.136C257.394,215.651,262.167,210.885,262.167,205.042z"/>
			<path d="M286.373,71.801h-7.706v133.241c0,14.921-12.157,27.088-27.101,27.125c-20.983,0.05-55.581,4.153-80.084,27.344
				c42.378-10.376,87.052-3.631,112.512,2.171c3.179,0.724,6.464-0.024,9.011-2.054c2.538-2.025,3.994-5.052,3.994-8.301V82.427
				C297,76.568,292.232,71.801,286.373,71.801z"/>
			<path d="M18.332,205.042V71.801h-7.706C4.768,71.801,0,76.568,0,82.427v168.897c0,3.25,1.456,6.276,3.994,8.301
				c2.545,2.029,5.827,2.78,9.011,2.054c25.46-5.803,70.135-12.547,112.511-2.171c-24.502-23.19-59.1-27.292-80.083-27.342
				C30.49,232.13,18.332,219.963,18.332,205.042z"/>
		</g>
	</g>
</g>
<g>
</g>
<g>
</g>
<g>
</g>
<g>
</g>
<g>
</g>
<g>
</g>
<g>
</g>
<g>
</g>
<g>
</g>
<g>
</g>
<g>
</g>
<g>
</g>
<g>
</g>
<g>
</g>
<g>
</g>
    </symbol>
    <symbol id="comment-simbol" viewBox="0 0 25 25">
		<path d="M17.33 7.71875C16.82 7.71875 16.35 8.00875 16.13 8.45875L14.71 11.2987C14.57 11.5787 14.5 11.8787 14.5 12.1887V16.7187C14.5 17.2687 14.95 17.7188 15.5 17.7188H19.5C20.05 17.7188 20.5 17.2687 20.5 16.7187V12.7187C20.5 12.1687 20.05 11.7187 19.5 11.7187H17.5L18.53 9.65875C18.98 8.76875 18.33 7.71875 17.33 7.71875ZM7.33 7.71875C6.82 7.71875 6.35 8.00875 6.13 8.45875L4.71 11.2987C4.57 11.5787 4.5 11.8787 4.5 12.1887V16.7187C4.5 17.2687 4.95 17.7188 5.5 17.7188H9.5C10.05 17.7188 10.5 17.2687 10.5 16.7187V12.7187C10.5 12.1687 10.05 11.7187 9.5 11.7187H7.5L8.53 9.65875C8.98 8.76875 8.33 7.71875 7.33 7.71875Z"></path>
    </symbol>
    <symbol id="frequent-questions" viewBox="0 0 92 92">
		<path d="M45.386.004C19.983.344-.333 21.215.005 46.619c.34 25.393 21.209 45.715 46.611 45.377 25.398-.342 45.718-21.213 45.38-46.615-.34-25.395-21.21-45.716-46.61-45.377zM45.25 74l-.254-.004c-3.912-.116-6.67-2.998-6.559-6.852.109-3.788 2.934-6.538 6.717-6.538l.227.004c4.021.119 6.748 2.972 6.635 6.937C51.904 71.346 49.123 74 45.25 74zm16.455-32.659c-.92 1.307-2.943 2.93-5.492 4.916l-2.807 1.938c-1.541 1.198-2.471 2.325-2.82 3.434-.275.873-.41 1.104-.434 2.88l-.004.451H39.43l.031-.907c.131-3.728.223-5.921 1.768-7.733 2.424-2.846 7.771-6.289 7.998-6.435.766-.577 1.412-1.234 1.893-1.936 1.125-1.551 1.623-2.772 1.623-3.972a7.74 7.74 0 0 0-1.471-4.576c-.939-1.323-2.723-1.993-5.303-1.993-2.559 0-4.311.812-5.359 2.478-1.078 1.713-1.623 3.512-1.623 5.35v.457H27.936l.02-.477c.285-6.769 2.701-11.643 7.178-14.487C37.947 18.918 41.447 18 45.531 18c5.346 0 9.859 1.299 13.412 3.861 3.6 2.596 5.426 6.484 5.426 11.556 0 2.837-.896 5.502-2.664 7.924z"></path>
    </symbol>
    <symbol id="map-peru" viewBox="0 0 512 342">
		<path d="M512 0H0V341.326H512V0Z" fill="#F0F0F0"></path> <path d="M170.663 0H0V341.337H170.663V0Z" fill="#D80027"></path> <path d="M512 0H341.337V341.337H512V0Z" fill="#D80027"></path>
    </symbol>
    <symbol id="premium" viewBox="0 0 32 32">
		<path fill-rule="evenodd" clip-rule="evenodd" d="M16 28C22.6274 28 28 22.6274 28 16C28 9.37258 22.6274 4 16 4C9.37258 4 4 9.37258 4 16C4 22.6274 9.37258 28 16 28ZM16 31C24.2843 31 31 24.2843 31 16C31 7.71573 24.2843 1 16 1C7.71573 1 1 7.71573 1 16C1 24.2843 7.71573 31 16 31Z"></path><path fill-rule="evenodd" clip-rule="evenodd" d="M14.1733 8.41383C14.878 6.83286 17.122 6.83285 17.8267 8.41383L19.2279 11.5572L22.6504 11.9184C24.3717 12.1001 25.0652 14.2343 23.7794 15.3931L21.2228 17.697L21.9369 21.0636C22.296 22.7569 20.4806 24.0759 18.9812 23.2111L16 21.4916L13.0188 23.2111C11.5194 24.0759 9.70395 22.7569 10.0631 21.0636L10.7772 17.697L8.22063 15.3931C6.93481 14.2343 7.62824 12.1001 9.34961 11.9184L12.7721 11.5572L14.1733 8.41383ZM16 11.6843L15.2774 13.3054C14.9867 13.9575 14.3705 14.4051 13.6606 14.4801L11.8955 14.6664L13.214 15.8546C13.7443 16.3325 13.9797 17.0569 13.8315 17.7552L13.4633 19.4915L15.0008 18.6047C15.6192 18.248 16.3808 18.248 16.9992 18.6047L18.5367 19.4915L18.1685 17.7552C18.0203 17.0569 18.2557 16.3325 18.786 15.8546L20.1045 14.6664L18.3394 14.4801C17.6295 14.4051 17.0133 13.9575 16.7226 13.3054L16 11.6843Z"></path>
    </symbol>
    <symbol id="to-register" viewBox="0 0 32 32">
		<path d="M2.5 3C3.32843 3 4 3.67157 4 4.5L4 27.5C4 28.3284 3.32843 29 2.5 29C1.67157 29 1 28.3284 1 27.5L1 4.5C1 3.67157 1.67157 3 2.5 3Z"></path><path d="M18.5 3C19.3284 3 20 3.67157 20 4.5V9.5C20 10.3284 19.3284 11 18.5 11C17.6716 11 17 10.3284 17 9.5V4.5C17 3.67157 17.6716 3 18.5 3Z"></path><path d="M18.5 21C19.3284 21 20 21.6716 20 22.5V27.5C20 28.3284 19.3284 29 18.5 29C17.6716 29 17 28.3284 17 27.5V22.5C17 21.6716 17.6716 21 18.5 21Z"></path><path d="M20 27.5C20 28.3284 19.3284 29 18.5 29H2.5C1.67157 29 1 28.3284 1 27.5C1 26.6716 1.67157 26 2.5 26L18.5 26C19.3284 26 20 26.6716 20 27.5Z"></path><path d="M20 4.5C20 5.32843 19.3284 6 18.5 6L2.5 6C1.67157 6 1 5.32843 1 4.5C1 3.67157 1.67157 3 2.5 3L18.5 3C19.3284 3 20 3.67157 20 4.5Z"></path><path d="M31 15.5C31 16.3284 30.3284 17 29.5 17L12.5 17C11.6716 17 11 16.3284 11 15.5C11 14.6716 11.6716 14 12.5 14L29.5 14C30.3284 14 31 14.6716 31 15.5Z"></path><path d="M23.4421 9.44212C24.0316 8.85263 24.9874 8.85263 25.5768 9.44212L30.5579 14.4232C31.1474 15.0126 31.1474 15.9684 30.5579 16.5579C29.9684 17.1474 29.0126 17.1474 28.4232 16.5579L23.4421 11.5768C22.8526 10.9874 22.8526 10.0316 23.4421 9.44212Z"></path><path d="M30.5579 14.4421C29.9684 13.8526 29.0126 13.8526 28.4232 14.4421L23.4421 19.4232C22.8526 20.0126 22.8526 20.9684 23.4421 21.5579C24.0316 22.1474 24.9874 22.1474 25.5768 21.5579L30.5579 16.5768C31.1474 15.9874 31.1474 15.0316 30.5579 14.4421Z"></path>
    </symbol>
    <symbol id="home" viewBox="0 0 32 32">
		<path fill-rule="evenodd" clip-rule="evenodd" d="M17.4884 2.8505C16.5661 2.32347 15.4339 2.32347 14.5116 2.8505L3.51158 9.13622C2.57686 9.67034 2 10.6644 2 11.7409V27C2 28.6568 3.34315 30 5 30H13V21C13 19.3431 14.3431 18 16 18C17.6569 18 19 19.3431 19 21V30H27C28.6569 30 30 28.6568 30 27V11.7409C30 10.6644 29.4231 9.67034 28.4884 9.13622L17.4884 2.8505Z"></path>
    </symbol>
    <symbol id="next-secondary" viewBox="0 0 492.004 492.004">
		<path d="M382.678,226.804L163.73,7.86C158.666,2.792,151.906,0,144.698,0s-13.968,2.792-19.032,7.86l-16.124,16.12c-10.492,10.504-10.492,27.576,0,38.064L293.398,245.9l-184.06,184.06c-5.064,5.068-7.86,11.824-7.86,19.028c0,7.212,2.796,13.968,7.86,19.04l16.124,16.116c5.068,5.068,11.824,7.86,19.032,7.86s13.968-2.792,19.032-7.86L382.678,265c5.076-5.084,7.864-11.872,7.848-19.088C390.542,238.668,387.754,231.884,382.678,226.804z"></path>
    </symbol>
    <symbol id="prev-secondary" viewBox="0 0 492 492">
		<path d="M198.608,246.104L382.664,62.04c5.068-5.056,7.856-11.816,7.856-19.024c0-7.212-2.788-13.968-7.856-19.032l-16.128-16.12C361.476,2.792,354.712,0,347.504,0s-13.964,2.792-19.028,7.864L109.328,227.008c-5.084,5.08-7.868,11.868-7.848,19.084c-0.02,7.248,2.76,14.028,7.848,19.112l218.944,218.932c5.064,5.072,11.82,7.864,19.032,7.864c7.208,0,13.964-2.792,19.032-7.864l16.124-16.12c10.492-10.492,10.492-27.572,0-38.06L198.608,246.104z"></path>
    </symbol>
    <symbol id="icon-plays" viewBox="33">
		
    </symbol>
</svg>