<?xml version="1.0" encoding="UTF-8"?>
<!DOCTYPE svg PUBLIC "-//W3C//DTD SVG 1.1//EN" "http://www.w3.org/Graphics/SVG/1.1/DTD/svg11.dtd">
<!-- Creator: CorelDRAW 2019 (64-Bit) -->
<svg xmlns="http://www.w3.org/2000/svg" xml:space="preserve" width="178.845mm" height="56.8047mm" version="1.1" shape-rendering="geometricPrecision" text-rendering="geometricPrecision" image-rendering="optimizeQuality" fill-rule="evenodd" clip-rule="evenodd"
viewBox="0 0 7918.54 2515.08"
 xmlns:xlink="http://www.w3.org/1999/xlink">
 <g id="Capa_x0020_1">
  <metadata id="CorelCorpID_0Corel-Layer"/>
  <g id="_1822777517840">
   <path fill="#2A3B47" fill-rule="nonzero" d="M2435.43 739.49l339.51 0c154.86,0 267.18,21.9 336.97,65.97 70.04,44.06 104.93,114.1 104.93,210.38 0,65.2 -15.28,118.69 -45.84,160.46 -30.56,41.77 -71.32,66.99 -122,75.39l0 7.39c69.02,15.54 118.94,44.32 149.51,86.6 30.82,42.28 46.1,98.57 46.1,168.61 0,99.59 -36.16,177.02 -107.99,232.79 -71.82,55.78 -169.37,83.54 -292.9,83.54l-408.28 0 0 -1091.12zm231.26 432.47l134.48 0c62.65,0 107.99,-9.68 136.26,-29.04 28.02,-19.61 42.03,-51.71 42.03,-96.53 0,-42.03 -15.28,-71.82 -45.85,-90.16 -30.56,-18.08 -78.95,-27.25 -145.18,-27.25l-121.75 0 0 242.98zm0 183.38l0 284.24 150.78 0c63.93,0 110.79,-12.22 141.1,-36.67 30.56,-24.2 45.59,-61.64 45.59,-111.81 0,-90.42 -64.69,-135.75 -194.08,-135.75l-143.4 0zm767.91 -575.1c0,-74.12 41.26,-111.05 123.78,-111.05 82.52,0 123.78,36.93 123.78,111.05 0,35.4 -10.19,62.91 -30.82,82.52 -20.63,19.61 -51.71,29.55 -92.97,29.55 -82.52,0 -123.78,-37.44 -123.78,-112.07zm237.12 1050.37l-227.45 0 0 -834.38 227.45 0 0 834.38zm820.63 -247.56c0,85.58 -29.55,150.78 -89.15,195.61 -59.34,44.82 -148.23,67.24 -266.67,67.24 -60.62,0 -112.32,-4.07 -155.11,-12.22 -42.79,-8.4 -82.78,-20.38 -120.22,-36.42l0 -187.96c42.28,19.87 89.91,36.42 142.89,49.92 52.98,13.5 99.59,20.12 139.83,20.12 82.77,0 124.03,-23.94 124.03,-71.82 0,-17.83 -5.6,-32.34 -16.55,-43.55 -10.95,-11.21 -29.8,-23.94 -56.54,-38.21 -27,-14.01 -62.65,-30.56 -107.48,-49.67 -64.18,-26.74 -111.3,-51.7 -141.36,-74.62 -30.05,-22.93 -51.96,-49.16 -65.71,-78.7 -13.76,-29.8 -20.38,-66.22 -20.38,-109.52 0,-73.86 28.52,-131.17 86.09,-171.67 57.31,-40.49 138.81,-60.62 244.25,-60.62 100.61,0 198.16,21.9 293.16,65.46l-68.51 163.77c-41.77,-17.83 -80.74,-32.6 -117.16,-44.06 -36.17,-11.46 -73.35,-17.06 -111.05,-17.06 -67.24,0 -100.86,18.08 -100.86,54.5 0,20.38 10.95,38.21 32.6,52.98 21.65,15.03 69.03,37.19 142.12,66.48 64.95,26.49 112.83,51.2 143.14,74.12 30.31,22.92 52.72,49.16 67.24,78.95 14.26,30.05 21.39,65.71 21.39,106.98zm947.47 247.56l-227.7 0 0 -487.23c0,-60.11 -10.7,-105.44 -32.09,-135.5 -21.39,-30.05 -55.27,-45.08 -102.14,-45.08 -63.42,0 -109.52,21.14 -137.79,63.67 -28.27,42.54 -42.53,113.09 -42.53,211.65l0 392.49 -227.45 0 0 -834.38 173.7 0 30.56 106.97 12.73 0c25.47,-40.24 60.37,-70.81 104.94,-91.43 44.32,-20.63 95,-30.82 151.54,-30.82 97.04,0 170.64,26.23 220.82,78.7 50.17,52.47 75.39,128.11 75.39,227.19l0 543.78zm580.2 -687.68c-48.39,0 -86.09,15.28 -113.59,45.84 -27.25,30.56 -43.04,73.87 -47.12,129.9l319.65 0c-1.02,-56.03 -15.54,-99.33 -44.06,-129.9 -28.27,-30.56 -66.73,-45.84 -114.87,-45.84zm32.09 702.96c-134.48,0 -239.41,-37.18 -315.06,-111.3 -75.65,-74.12 -113.34,-179.05 -113.34,-314.81 0,-139.83 34.89,-247.82 104.68,-324.23 70.04,-76.41 166.57,-114.61 290.1,-114.61 117.92,0 209.62,33.62 275.33,100.6 65.71,67.24 98.57,159.7 98.57,278.13l0 110.28 -538.17 0c2.55,64.69 21.65,115.38 57.31,151.8 35.91,36.42 86.34,54.5 151.03,54.5 50.17,0 97.81,-5.35 142.63,-15.79 44.57,-10.44 91.43,-27 140.34,-49.92l0 176.25c-39.99,19.87 -82.52,34.89 -127.86,44.57 -45.08,9.68 -100.35,14.51 -165.56,14.51zm1106.92 -262.84c0,85.58 -29.55,150.78 -89.15,195.61 -59.34,44.82 -148.23,67.24 -266.67,67.24 -60.62,0 -112.32,-4.07 -155.11,-12.22 -42.79,-8.4 -82.78,-20.38 -120.22,-36.42l0 -187.96c42.28,19.87 89.91,36.42 142.89,49.92 52.98,13.5 99.59,20.12 139.83,20.12 82.77,0 124.03,-23.94 124.03,-71.82 0,-17.83 -5.6,-32.34 -16.55,-43.55 -10.95,-11.21 -29.8,-23.94 -56.54,-38.21 -27,-14.01 -62.65,-30.56 -107.48,-49.67 -64.18,-26.74 -111.3,-51.7 -141.36,-74.62 -30.05,-22.93 -51.96,-49.16 -65.71,-78.7 -13.76,-29.8 -20.38,-66.22 -20.38,-109.52 0,-73.86 28.52,-131.17 86.09,-171.67 57.31,-40.49 138.81,-60.62 244.25,-60.62 100.61,0 198.16,21.9 293.16,65.46l-68.51 163.77c-41.77,-17.83 -80.74,-32.6 -117.16,-44.06 -36.17,-11.46 -73.35,-17.06 -111.05,-17.06 -67.24,0 -100.86,18.08 -100.86,54.5 0,20.38 10.95,38.21 32.6,52.98 21.65,15.03 69.03,37.19 142.12,66.48 64.95,26.49 112.83,51.2 143.14,74.12 30.31,22.92 52.72,49.16 67.24,78.95 14.26,30.05 21.39,65.71 21.39,106.98zm759.5 0c0,85.58 -29.55,150.78 -89.15,195.61 -59.34,44.82 -148.23,67.24 -266.67,67.24 -60.62,0 -112.32,-4.07 -155.11,-12.22 -42.79,-8.4 -82.78,-20.38 -120.22,-36.42l0 -187.96c42.28,19.87 89.91,36.42 142.89,49.92 52.98,13.5 99.59,20.12 139.83,20.12 82.77,0 124.03,-23.94 124.03,-71.82 0,-17.83 -5.6,-32.34 -16.55,-43.55 -10.95,-11.21 -29.8,-23.94 -56.54,-38.21 -27,-14.01 -62.65,-30.56 -107.48,-49.67 -64.18,-26.74 -111.3,-51.7 -141.36,-74.62 -30.05,-22.93 -51.96,-49.16 -65.71,-78.7 -13.76,-29.8 -20.38,-66.22 -20.38,-109.52 0,-73.86 28.52,-131.17 86.09,-171.67 57.31,-40.49 138.81,-60.62 244.25,-60.62 100.61,0 198.16,21.9 293.16,65.46l-68.51 163.77c-41.77,-17.83 -80.74,-32.6 -117.16,-44.06 -36.17,-11.46 -73.35,-17.06 -111.05,-17.06 -67.24,0 -100.86,18.08 -100.86,54.5 0,20.38 10.95,38.21 32.6,52.98 21.65,15.03 69.03,37.19 142.12,66.48 64.95,26.49 112.83,51.2 143.14,74.12 30.31,22.92 52.72,49.16 67.24,78.95 14.26,30.05 21.39,65.71 21.39,106.98z"/>
   <g>
    <path fill="#2A3B47" d="M2020.2 1625.04c-1.04,2.53 -3.2,4.37 -4.88,6.54 -195.53,191.32 -476.69,292.26 -782.51,367.17 -303.07,64.67 -670.69,290.26 -853.66,516.33 85.25,-338.03 322.77,-652.73 1168.04,-874.31 -723.58,64.07 -1106.59,368.81 -1352.77,766.46 -23.17,-358.16 91.17,-706.12 1299.99,-972.99 -643.98,86.39 -1162.81,255.51 -1445.71,580.58 12.91,-360.55 291.69,-653.94 1441.12,-727.45 -556.44,-33.8 -982.58,52.93 -1294.25,245.55 111.77,-240.31 384.66,-389.23 906.43,-397 377.05,17.19 606.76,-149.47 472.73,-270.78 801.11,-214.03 587.99,412.88 445.47,759.9z"/>
    <path fill="#008DF2" d="M478.98 463.55c-63.66,64.77 -140.57,110.4 -231.77,135.39 -17.6,-135.01 143.34,-214.03 242.1,-270.21 238.66,-113.02 461.02,-224.93 564.51,-328.73 -24.86,107.47 -48.57,180.52 -153.75,257.01 1021.65,-105.2 1574.31,772.98 1120.14,1368.03 127.3,-333.25 -56.99,-600.63 -445.47,-759.9 -325.7,-163.65 -1063.91,-194.58 -1570.19,177.27 -14.46,-108.51 1.15,-213.62 112.73,-299.75 140.76,-106.19 349.56,-191.02 361.7,-279.12z"/>
   </g>
  </g>
 </g>
</svg>
