<?xml version="1.0" encoding="UTF-8"?>
<!DOCTYPE svg PUBLIC "-//W3C//DTD SVG 1.1//EN" "http://www.w3.org/Graphics/SVG/1.1/DTD/svg11.dtd">
<!-- Creator: CorelDRAW 2019 (64-Bit) -->
<svg xmlns="http://www.w3.org/2000/svg" xml:space="preserve" width="49.8216mm" height="13.616mm" version="1.1" shape-rendering="geometricPrecision" text-rendering="geometricPrecision" image-rendering="optimizeQuality" fill-rule="evenodd" clip-rule="evenodd"
viewBox="0 0 4007.28 1095.17"
 xmlns:xlink="http://www.w3.org/1999/xlink">
 <defs>
   <linearGradient id="id0" gradientUnits="userSpaceOnUse" x1="406.32" y1="119.19" x2="1189.5" y2="1545.73">
    <stop offset="0" stop-opacity="1" stop-color="#0779E4"/>
    <stop offset="1" stop-opacity="1" stop-color="#31ACFF"/>
   </linearGradient>
   <clipPath id="id1">
    <path d="M1072.01 748.12c-79.85,-108.21 -90.34,-127.09 -152.6,-200.18 -160.7,-190.8 -266.7,-281.2 -367.42,-288.29 -352.13,-16.01 -424.29,567.61 -5.18,577.03 77.92,1.79 182.35,-72.09 273.35,-167.95l149.4 195.51c-202.5,208.21 -389,269.52 -589.02,208.43 -383.96,-124.34 -527.37,-609.05 -194.08,-942.54 274.62,-219.85 611.25,-170.79 887.44,221.39 145.93,-235.56 316.9,-353.98 514.41,-348.2l-3.32 257.95c-87.23,8.43 -208.03,109.02 -354.7,280.56 77.65,135.28 269.29,328.7 429.53,288.75l0 -456.07 252.23 0 0 611.22c-38,28.58 -76.19,49.76 -114.5,66.3l-1.4 0c-143.46,59.26 -290.13,61.14 -441.5,-21.28 -92.41,-55.15 -186.46,-145.81 -282.62,-282.62z"/>
   </clipPath>
     <linearGradient id="id2" gradientUnits="userSpaceOnUse" x1="251.39" y1="704.28" x2="218.44" y2="375.1">
      <stop offset="0" stop-opacity="1" stop-color="#0779E4"/>
      <stop offset="1" stop-opacity="1" stop-color="#31ACFF"/>
     </linearGradient>
 </defs>
 <g id="Capa_x0020_1">
  <metadata id="CorelCorpID_0Corel-Layer"/>
  <path fill="url(#id0)" d="M1072.01 748.12c-79.85,-108.21 -90.34,-127.09 -152.6,-200.18 -160.7,-190.8 -266.7,-281.2 -367.42,-288.29 -352.13,-16.01 -424.29,567.61 -5.18,577.03 77.92,1.79 182.35,-72.09 273.35,-167.95l149.4 195.51c-202.5,208.21 -389,269.52 -589.02,208.43 -383.96,-124.34 -527.37,-609.05 -194.08,-942.54 274.62,-219.85 611.25,-170.79 887.44,221.39 145.93,-235.56 316.9,-353.98 514.41,-348.2l-3.32 257.95c-87.23,8.43 -208.03,109.02 -354.7,280.56 77.65,135.28 269.29,328.7 429.53,288.75l0 -456.07 252.23 0 0 611.22c-38,28.58 -76.19,49.76 -114.5,66.3l-1.4 0c-143.46,59.26 -290.13,61.14 -441.5,-21.28 -92.41,-55.15 -186.46,-145.81 -282.62,-282.62z"/>
  <g clip-path="url(#id1)">
   <g id="_2330737581344">
    <ellipse fill="url(#id2)" cx="133.31" cy="545.78" rx="594.69" ry="314.87"/>
   </g>
  </g>
  <path fill="none" d="M1072.01 748.12c-79.85,-108.21 -90.34,-127.09 -152.6,-200.18 -160.7,-190.8 -266.7,-281.2 -367.42,-288.29 -352.13,-16.01 -424.29,567.61 -5.18,577.03 77.92,1.79 182.35,-72.09 273.35,-167.95l149.4 195.51c-202.5,208.21 -389,269.52 -589.02,208.43 -383.96,-124.34 -527.37,-609.05 -194.08,-942.54 274.62,-219.85 611.25,-170.79 887.44,221.39 145.93,-235.56 316.9,-353.98 514.41,-348.2l-3.32 257.95c-87.23,8.43 -208.03,109.02 -354.7,280.56 77.65,135.28 269.29,328.7 429.53,288.75l0 -456.07 252.23 0 0 611.22c-38,28.58 -76.19,49.76 -114.5,66.3l-1.4 0c-143.46,59.26 -290.13,61.14 -441.5,-21.28 -92.41,-55.15 -186.46,-145.81 -282.62,-282.62z"/>
  <path fill="#0779E4" fill-rule="nonzero" d="M1659.81 263.26l0 -255.25c94.89,15.93 173.88,55.23 252.22,113.64l0 141.61 -252.22 0z"/>
  <path fill="#F2F2F2" fill-rule="nonzero" d="M2186.3 978.28l-152.15 0 0 -605.98 152.15 0 0 605.98zm257.67 0l-152.15 0 0 -605.98 152.15 0 0 605.98zm320.8 -440.93c55.8,0 99.39,13.55 130.76,40.67 31.36,27.23 47.05,65.91 47.05,116.14l0 284.13 -105.38 0 -29.24 -58.21 -3.19 0c-12.36,15.55 -25.25,28.18 -38.27,38 -13.16,9.7 -28.18,16.88 -45.05,21.4 -16.87,4.51 -37.47,6.77 -61.79,6.77 -25.52,0 -48.38,-5.05 -68.58,-15.28 -20.2,-10.23 -36.15,-25.65 -47.84,-46.38 -11.69,-20.74 -17.54,-46.91 -17.54,-78.54 0,-46.51 16.35,-80.92 49.04,-103.39 32.69,-22.45 80.13,-35.21 142.06,-38l73.62 -2.26 0 -5.84c0,-18.74 -4.92,-32.04 -14.62,-39.88 -9.7,-7.97 -22.72,-11.82 -39.07,-11.82 -17.41,0 -36.81,3.06 -58.21,9.03 -21.4,6.12 -42.92,13.96 -64.45,23.66l-43.99 -100.46c25.38,-13.03 54.22,-22.87 86.38,-29.64 32.16,-6.78 68.3,-10.1 108.31,-10.1zm26.44 248.77l-35.08 1.46c-28.04,0.92 -47.7,5.57 -59,13.95 -11.3,8.24 -16.88,20.08 -16.88,35.36 0,14.35 3.99,24.98 12.1,31.75 7.97,6.78 18.6,10.1 31.89,10.1 18.48,0 34.15,-5.45 47.3,-16.62 13.17,-11.16 19.67,-25.64 19.67,-43.45l0 -32.56zm521.2 -248.77c8.37,0 17,0.53 26.18,1.72 9.04,1.21 15.81,2.13 20.2,2.94l-13.56 143.64c-5.05,-1.33 -11.29,-2.39 -19.13,-3.31 -7.84,-0.93 -18.73,-1.34 -32.7,-1.34 -9.56,0 -19.93,0.93 -30.83,2.66 -10.9,1.72 -21.13,5.45 -30.83,11.16 -9.84,5.71 -17.81,14.35 -24.06,25.78 -6.1,11.56 -9.3,26.98 -9.3,46.51l0 211.17 -152.15 0 0 -432.96 113.22 0 23.79 70.31 7.3 0c8.11,-14.62 18.48,-27.77 30.97,-39.61 12.62,-11.69 26.84,-21.13 42.52,-28.18 15.68,-7.05 31.76,-10.5 48.37,-10.5zm260.86 7.97l0 432.96 -152.29 0 0 -432.96 152.29 0zm-75.48 -177.8c21.8,0 40.8,4.65 57.01,13.69 16.21,9.03 24.32,27.11 24.32,54.08 0,26.18 -8.12,43.99 -24.32,53.16 -16.22,9.17 -35.21,13.82 -57.01,13.82 -22.32,0 -41.46,-4.65 -57.14,-13.82 -15.68,-9.17 -23.52,-26.98 -23.52,-53.16 0,-26.98 7.83,-45.05 23.52,-54.08 15.68,-9.04 34.82,-13.69 57.14,-13.69zm509.49 477.87c0,27.64 -6.24,51.96 -18.6,73.09 -12.49,21.27 -32.43,37.74 -59.8,49.83 -27.37,11.96 -63.39,17.94 -108.04,17.94 -31.36,0 -59.54,-1.73 -84.25,-5.05 -24.85,-3.45 -49.96,-9.84 -75.35,-19.54l0 -121.86c27.77,12.75 56.08,21.93 84.78,27.5 28.84,5.58 51.57,8.37 68.17,8.37 17.15,0 29.64,-1.72 37.62,-5.04 7.84,-3.46 11.82,-8.51 11.82,-15.28 0,-6.38 -2.66,-11.83 -7.97,-16.21 -5.32,-4.52 -14.76,-9.7 -28.44,-15.56 -13.56,-5.85 -32.7,-13.82 -57.4,-23.78 -24.32,-9.84 -44.66,-20.73 -60.87,-32.42 -16.21,-11.83 -28.43,-25.79 -36.41,-42.13 -8.1,-16.34 -12.1,-36.41 -12.1,-60.07 0,-42.4 16.62,-74.29 49.84,-95.68 33.22,-21.4 77.21,-32.16 131.96,-32.16 29.1,0 56.48,3.19 82.12,9.56 25.79,6.39 52.35,15.56 79.87,27.77l-41.73 98.21c-21.79,-9.97 -43.85,-17.81 -66.18,-23.78 -22.32,-5.98 -40,-9.03 -53.29,-9.03 -11.96,0 -21.13,1.59 -27.64,4.51 -6.51,3.06 -9.7,7.31 -9.7,13.02 0,5.32 2.26,9.84 6.78,13.82 4.51,3.99 13.15,8.65 25.92,13.83 12.76,5.18 31.22,12.62 55.68,22.06 25.65,10.1 46.91,21.12 63.65,32.68 16.75,11.57 29.24,25.66 37.34,42.27 8.24,16.62 12.22,37.61 12.22,63.12z"/>
 </g>
</svg>
