<?xml version="1.0" encoding="UTF-8"?>
<!DOCTYPE svg PUBLIC "-//W3C//DTD SVG 1.1//EN" "http://www.w3.org/Graphics/SVG/1.1/DTD/svg11.dtd">
<!-- Creator: CorelDRAW 2019 (64-Bit) -->
<svg xmlns="http://www.w3.org/2000/svg" xml:space="preserve" width="57.593mm" height="15.0356mm" version="1.1" shape-rendering="geometricPrecision" text-rendering="geometricPrecision" image-rendering="optimizeQuality" fill-rule="evenodd" clip-rule="evenodd"
viewBox="0 0 6336.59 1654.27"
 xmlns:xlink="http://www.w3.org/1999/xlink">
 <defs>
     <clipPath id="id0">
      <path d="M139.61 1113.11l307.13 -187.22c45.31,-21.98 93.28,-20.01 133.48,-0.03l374.87 219.51 373.43 -219.93c42.4,-19.86 83.97,-18.79 120.81,0.5l328.22 188.26c29.18,17.61 30.3,56.61 0.17,76.38l-748.19 439.86c-55.03,30.62 -78.63,32.45 -136.97,1.31l-751.46 -447.52c-22.03,-11.54 -28.83,-50.84 -1.49,-71.12z"/>
     </clipPath>
     <clipPath id="id1">
      <path d="M20.51 232.43l351.67 -214.38c51.88,-25.16 106.81,-22.91 152.84,-0.03l429.24 251.35 427.6 -251.83c48.56,-22.73 96.16,-21.51 138.33,0.58l375.83 215.56c33.41,20.18 34.69,64.81 0.19,87.46l-856.71 503.67c-63.02,35.05 -90.04,37.15 -156.83,1.49l-860.46 -512.42c-25.22,-13.21 -33.01,-58.21 -1.69,-81.43z"/>
     </clipPath>
 </defs>
 <g id="Capa_x0020_1">
  <metadata id="CorelCorpID_0Corel-Layer"/>
  <g id="_2162391628800">
   <g>
    <path fill="#294B6B" d="M139.61 1113.11l307.13 -187.22c45.31,-21.98 93.28,-20.01 133.48,-0.03l374.87 219.51 373.43 -219.93c42.4,-19.86 83.97,-18.79 120.81,0.5l328.22 188.26c29.18,17.61 30.3,56.61 0.17,76.38l-748.19 439.86c-55.03,30.62 -78.63,32.45 -136.97,1.31l-751.46 -447.52c-22.03,-11.54 -28.83,-50.84 -1.49,-71.12z"/>
    <g clip-path="url(#id0)">
     <g>
      <polygon id="1" fill="#1F3952" points="520.62,1410.11 955.06,1145.37 1380.1,1424.51 1844.1,1734.64 970.05,1834.83 442.59,1603.79 "/>
     </g>
    </g>
    <path fill="none" d="M139.61 1113.11l307.13 -187.22c45.31,-21.98 93.28,-20.01 133.48,-0.03l374.87 219.51 373.43 -219.93c42.4,-19.86 83.97,-18.79 120.81,0.5l328.22 188.26c29.18,17.61 30.3,56.61 0.17,76.38l-748.19 439.86c-55.03,30.62 -78.63,32.45 -136.97,1.31l-751.46 -447.52c-22.03,-11.54 -28.83,-50.84 -1.49,-71.12z"/>
    <path fill="#0779E4" d="M20.51 232.43l351.67 -214.38c51.88,-25.16 106.81,-22.91 152.84,-0.03l429.24 251.35 427.6 -251.83c48.56,-22.73 96.16,-21.51 138.33,0.58l375.83 215.56c33.41,20.18 34.69,64.81 0.19,87.46l-856.71 503.67c-63.02,35.05 -90.04,37.15 -156.83,1.49l-860.46 -512.42c-25.22,-13.21 -33.01,-58.21 -1.69,-81.43z"/>
    <g clip-path="url(#id1)">
     <g>
      <polygon id="1" fill="#0C5DA8" points="456.77,572.5 954.22,269.36 1440.91,588.99 2559.54,994.65 947.33,1299.97 -767.65,1143.54 "/>
     </g>
    </g>
    <path fill="none" d="M20.51 232.43l351.67 -214.38c51.88,-25.16 106.81,-22.91 152.84,-0.03l429.24 251.35 427.6 -251.83c48.56,-22.73 96.16,-21.51 138.33,0.58l375.83 215.56c33.41,20.18 34.69,64.81 0.19,87.46l-856.71 503.67c-63.02,35.05 -90.04,37.15 -156.83,1.49l-860.46 -512.42c-25.22,-13.21 -33.01,-58.21 -1.69,-81.43z"/>
   </g>
   <path fill="white" fill-rule="nonzero" d="M2570.97 1260.04l-59.64 -195.09 -300.52 0 -59.64 195.09 -188.36 0 290.9 -824.23 213.57 0 292.06 824.23 -188.36 0zm-101.39 -341.7l-59.84 -190.67c-3.65,-12.7 -8.66,-29.05 -14.81,-49.06 -6.35,-20 -12.51,-40.4 -18.66,-61.18 -6.16,-20.77 -11.17,-38.86 -15.01,-54.25 -3.66,15.39 -8.86,34.44 -15.39,56.95 -6.55,22.71 -12.89,44.06 -18.86,64.26 -6.16,20.2 -10.39,34.64 -13.08,43.28l-59.07 190.67 214.72 0zm551.79 341.7l-171.81 0 0 -877.34 171.81 0 0 877.34zm920.44 -634.91c71.58,0 125.45,18.09 162.2,54.25 36.55,36.36 54.84,94.47 54.84,174.31l0 406.35 -172.4 0 0 -362.86c0,-44.45 -7.69,-77.93 -23.08,-100.63 -15.39,-22.51 -39.25,-33.87 -71.57,-33.87 -45.6,0 -77.92,15.98 -96.97,48.1 -19.23,31.94 -28.86,77.92 -28.86,137.56l0 311.69 -171.81 0 0 -362.86c0,-29.63 -3.45,-54.45 -10.19,-74.46 -6.73,-20.01 -17.13,-35.02 -30.98,-45.02 -13.85,-10 -31.74,-15.01 -53.48,-15.01 -31.94,0 -57.15,7.89 -75.23,23.67 -18.27,15.58 -31.36,38.86 -39.05,69.46 -7.7,30.59 -11.55,67.92 -11.55,111.97l0 292.26 -171.81 0 0 -623.37 131.23 0 23.27 80.81 9.43 0c12.89,-21.74 28.86,-39.44 48.3,-52.91 19.23,-13.47 40.59,-23.48 63.87,-29.83 23.28,-6.35 46.95,-9.62 71,-9.62 46.36,0 85.42,7.5 117.56,22.51 32.13,15.01 56.95,38.29 74.25,69.84l15.21 0c18.66,-32.32 45.21,-55.8 79.66,-70.43 34.44,-14.62 69.83,-21.93 106.19,-21.93zm565.46 11.54l0 623.37 -171.81 0 0 -623.37 171.81 0zm-85.61 -247.04c25.58,0 47.52,5.96 65.99,17.7 18.27,11.93 27.51,34.05 27.51,66.18 0,32.13 -9.23,54.07 -27.51,66.38 -18.47,12.12 -40.41,18.27 -65.99,18.27 -25.98,0 -48.1,-6.15 -66.19,-18.27 -18.27,-12.31 -27.32,-34.25 -27.32,-66.38 0,-32.13 9.04,-54.25 27.32,-66.18 18.09,-11.74 40.21,-17.7 66.19,-17.7zm617.79 235.49c8.66,0 18.66,0.39 30.2,1.34 11.35,0.97 20.78,2.31 27.9,3.66l-13.08 161.23c-5.59,-1.74 -13.66,-3.28 -23.86,-4.24 -10.39,-0.96 -19.23,-1.34 -26.74,-1.34 -22.32,0 -43.68,2.68 -64.65,8.26 -20.78,5.59 -39.44,14.62 -55.99,26.94 -16.55,12.5 -29.63,28.66 -39.25,48.86 -9.63,20.2 -14.44,45.02 -14.44,74.27l0 315.92 -171.81 0 0 -623.37 130.26 0 25.21 106.21 8.46 0c12.51,-21.36 27.9,-40.98 46.56,-58.87 18.66,-17.89 39.83,-32.13 63.68,-42.91 23.86,-10.57 49.64,-15.96 77.54,-15.96zm745.16 322.46c0,51.95 -6.93,98.12 -21.17,138.33 -14.04,40.03 -34.44,74.08 -61.37,101.78 -26.75,27.7 -59.07,48.49 -96.97,62.72 -37.71,14.04 -80.23,21.16 -127.56,21.16 -44.44,0 -85.04,-7.12 -122.17,-21.16 -36.93,-14.24 -69.07,-35.02 -96.39,-62.72 -27.12,-27.7 -48.29,-61.76 -63.11,-101.78 -14.81,-40.21 -22.13,-86.38 -22.13,-138.33 0,-69.26 12.32,-127.75 37.13,-175.85 24.82,-47.9 60.03,-84.27 106.02,-109.29 45.79,-24.81 100.43,-37.32 163.92,-37.32 59.06,0 111.4,12.51 156.99,37.32 45.6,25.02 81.58,61.38 107.75,109.29 25.98,48.1 39.06,106.59 39.06,175.85zm-435.59 0c0,40.6 4.42,74.65 13.47,102.36 9.04,27.7 23.09,48.49 42.33,62.53 19.06,14.05 44.06,20.98 74.85,20.98 30.59,0 55.22,-6.93 74.27,-20.98 18.86,-14.04 32.71,-34.82 41.56,-62.53 8.85,-27.7 13.28,-61.76 13.28,-102.36 0,-40.98 -4.43,-75.04 -13.28,-102.16 -8.85,-27.13 -22.7,-47.53 -41.94,-61.18 -19.05,-13.66 -44.06,-20.4 -75.04,-20.4 -45.41,0 -78.3,15.19 -98.89,45.79 -20.4,30.78 -30.6,76.58 -30.6,137.95zm929.48 -322.46c8.66,0 18.66,0.39 30.2,1.34 11.35,0.97 20.78,2.31 27.9,3.66l-13.08 161.23c-5.59,-1.74 -13.66,-3.28 -23.86,-4.24 -10.39,-0.96 -19.23,-1.34 -26.74,-1.34 -22.32,0 -43.68,2.68 -64.65,8.26 -20.78,5.59 -39.44,14.62 -55.99,26.94 -16.55,12.5 -29.63,28.66 -39.25,48.86 -9.63,20.2 -14.44,45.02 -14.44,74.27l0 315.92 -171.81 0 0 -623.37 130.26 0 25.21 106.21 8.46 0c12.51,-21.36 27.9,-40.98 46.56,-58.87 18.66,-17.89 39.83,-32.13 63.68,-42.91 23.86,-10.57 49.64,-15.96 77.54,-15.96z"/>
  </g>
 </g>
</svg>
