<?xml version="1.0" encoding="UTF-8"?>
<!DOCTYPE svg PUBLIC "-//W3C//DTD SVG 1.1//EN" "http://www.w3.org/Graphics/SVG/1.1/DTD/svg11.dtd">
<!-- Creator: CorelDRAW 2019 (64-Bit) -->
<svg xmlns="http://www.w3.org/2000/svg" xml:space="preserve" width="54.1453mm" height="13.616mm" version="1.1" shape-rendering="geometricPrecision" text-rendering="geometricPrecision" image-rendering="optimizeQuality" fill-rule="evenodd" clip-rule="evenodd"
viewBox="0 0 4733 1190.21"
 xmlns:xlink="http://www.w3.org/1999/xlink">
 <defs>
   <linearGradient id="id0" gradientUnits="userSpaceOnUse" x1="441.58" y1="129.54" x2="1292.73" y2="1679.88">
    <stop offset="0" stop-opacity="1" stop-color="#0779E4"/>
    <stop offset="1" stop-opacity="1" stop-color="#31ACFF"/>
   </linearGradient>
   <clipPath id="id1">
    <path d="M1165.05 813.04c-86.78,-117.61 -98.18,-138.12 -165.85,-217.55 -174.64,-207.36 -289.84,-305.6 -399.3,-313.31 -382.69,-17.4 -461.11,616.87 -5.63,627.11 84.68,1.94 198.17,-78.35 297.07,-182.53l162.36 212.47c-220.07,226.28 -422.76,292.91 -640.14,226.51 -417.28,-135.13 -573.14,-661.91 -210.92,-1024.34 298.45,-238.93 664.29,-185.61 964.45,240.6 158.59,-256.01 344.4,-384.7 559.05,-378.42l-3.61 280.33c-94.8,9.16 -226.08,118.48 -385.48,304.9 84.39,147.02 292.66,357.22 466.8,313.81l0 -495.65 274.12 0 0 664.27c-41.29,31.06 -82.8,54.08 -124.43,72.05l-1.52 0c-155.91,64.41 -315.31,66.45 -479.82,-23.13 -100.43,-59.94 -202.64,-158.46 -307.15,-307.15z"/>
   </clipPath>
     <linearGradient id="id2" gradientUnits="userSpaceOnUse" x1="273.21" y1="765.4" x2="237.4" y2="407.65">
      <stop offset="0" stop-opacity="1" stop-color="#0779E4"/>
      <stop offset="1" stop-opacity="1" stop-color="#31ACFF"/>
     </linearGradient>
 </defs>
 <g id="Capa_x0020_1">
  <metadata id="CorelCorpID_0Corel-Layer"/>
  <path fill="url(#id0)" d="M1165.05 813.04c-86.78,-117.61 -98.18,-138.12 -165.85,-217.55 -174.64,-207.36 -289.84,-305.6 -399.3,-313.31 -382.69,-17.4 -461.11,616.87 -5.63,627.11 84.68,1.94 198.17,-78.35 297.07,-182.53l162.36 212.47c-220.07,226.28 -422.76,292.91 -640.14,226.51 -417.28,-135.13 -573.14,-661.91 -210.92,-1024.34 298.45,-238.93 664.29,-185.61 964.45,240.6 158.59,-256.01 344.4,-384.7 559.05,-378.42l-3.61 280.33c-94.8,9.16 -226.08,118.48 -385.48,304.9 84.39,147.02 292.66,357.22 466.8,313.81l0 -495.65 274.12 0 0 664.27c-41.29,31.06 -82.8,54.08 -124.43,72.05l-1.52 0c-155.91,64.41 -315.31,66.45 -479.82,-23.13 -100.43,-59.94 -202.64,-158.46 -307.15,-307.15z"/>
  <g clip-path="url(#id1)">
   <g id="_2330817594096">
    <ellipse fill="url(#id2)" cx="144.88" cy="593.14" rx="646.3" ry="342.2"/>
   </g>
  </g>
  <path fill="none" d="M1165.05 813.04c-86.78,-117.61 -98.18,-138.12 -165.85,-217.55 -174.64,-207.36 -289.84,-305.6 -399.3,-313.31 -382.69,-17.4 -461.11,616.87 -5.63,627.11 84.68,1.94 198.17,-78.35 297.07,-182.53l162.36 212.47c-220.07,226.28 -422.76,292.91 -640.14,226.51 -417.28,-135.13 -573.14,-661.91 -210.92,-1024.34 298.45,-238.93 664.29,-185.61 964.45,240.6 158.59,-256.01 344.4,-384.7 559.05,-378.42l-3.61 280.33c-94.8,9.16 -226.08,118.48 -385.48,304.9 84.39,147.02 292.66,357.22 466.8,313.81l0 -495.65 274.12 0 0 664.27c-41.29,31.06 -82.8,54.08 -124.43,72.05l-1.52 0c-155.91,64.41 -315.31,66.45 -479.82,-23.13 -100.43,-59.94 -202.64,-158.46 -307.15,-307.15z"/>
  <path fill="#0779E4" fill-rule="nonzero" d="M1803.85 286.1l0 -277.4c103.12,17.31 188.97,60.02 274.11,123.5l0 153.9 -274.11 0z"/>
  <path fill="#F2F2F2" fill-rule="nonzero" d="M2405.18 1061.65l-194.5 0 0 -774.64 194.5 0 0 774.64zm329.39 0l-194.5 0 0 -774.64 194.5 0 0 774.64zm410.08 -563.65c71.35,0 127.06,17.33 167.16,51.98 40.09,34.82 60.14,84.26 60.14,148.46l0 363.2 -134.72 0 -37.37 -74.41 -4.08 0c-15.8,19.88 -32.28,36.01 -48.93,48.58 -16.81,12.4 -36.01,21.58 -57.59,27.36 -21.56,5.77 -47.9,8.66 -78.99,8.66 -32.62,0 -61.84,-6.46 -87.67,-19.54 -25.81,-13.08 -46.21,-32.78 -61.15,-59.28 -14.94,-26.5 -22.42,-59.97 -22.42,-100.4 0,-59.46 20.9,-103.44 62.68,-132.16 41.79,-28.71 102.44,-45.02 181.6,-48.58l94.11 -2.89 0 -7.47c0,-23.96 -6.28,-40.95 -18.69,-50.97 -12.4,-10.19 -29.05,-15.11 -49.94,-15.11 -22.26,0 -47.05,3.91 -74.41,11.54 -27.35,7.82 -54.86,17.85 -82.39,30.25l-56.23 -128.43c32.45,-16.66 69.31,-29.23 110.43,-37.88 41.1,-8.66 87.31,-12.91 138.44,-12.91zm33.8 318.01l-44.84 1.86c-35.85,1.19 -60.99,7.13 -75.42,17.84 -14.45,10.53 -21.58,25.66 -21.58,45.19 0,18.35 5.1,31.93 15.45,40.59 10.19,8.66 23.79,12.91 40.77,12.91 23.62,0 43.66,-6.97 60.48,-21.23 16.82,-14.27 25.14,-32.79 25.14,-55.55l0 -41.62zm666.26 -318.01c10.7,0 21.74,0.67 33.46,2.2 11.56,1.53 20.21,2.72 25.82,3.74l-17.33 183.64c-6.45,-1.7 -14.43,-3.06 -24.46,-4.25 -10.02,-1.19 -23.94,-1.7 -41.79,-1.7 -12.22,0 -25.48,1.19 -39.41,3.4 -13.93,2.19 -27.01,6.95 -39.41,14.27 -12.57,7.3 -22.76,18.35 -30.75,32.95 -7.81,14.77 -11.89,34.48 -11.89,59.46l0 269.93 -194.5 0 0 -553.45 144.73 0 30.42 89.86 9.33 0c10.38,-18.69 23.62,-35.5 39.59,-50.62 16.14,-14.95 34.31,-27.01 54.36,-36.02 20.04,-8.99 40.6,-13.41 61.84,-13.41zm333.46 10.19l0 553.45 -194.68 0 0 -553.45 194.68 0zm-96.49 -227.3c27.86,0 52.15,5.94 72.88,17.51 20.73,11.54 31.09,34.64 31.09,69.13 0,33.47 -10.37,56.23 -31.09,67.95 -20.73,11.72 -45.02,17.67 -72.88,17.67 -28.54,0 -53.01,-5.94 -73.04,-17.67 -20.04,-11.72 -30.07,-34.48 -30.07,-67.95 0,-34.48 10.03,-57.59 30.07,-69.13 20.04,-11.56 44.5,-17.51 73.04,-17.51zm651.3 610.88c0,35.34 -7.98,66.42 -23.79,93.44 -15.97,27.18 -41.45,48.23 -76.44,63.7 -34.99,15.29 -81.03,22.94 -138.1,22.94 -40.1,0 -76.11,-2.21 -107.7,-6.46 -31.77,-4.41 -63.87,-12.57 -96.32,-24.97l0 -155.78c35.5,16.3 71.68,28.02 108.37,35.16 36.86,7.13 65.92,10.7 87.14,10.7 21.91,0 37.88,-2.19 48.09,-6.44 10.03,-4.42 15.11,-10.87 15.11,-19.54 0,-8.16 -3.4,-15.12 -10.19,-20.73 -6.8,-5.78 -18.85,-12.4 -36.35,-19.88 -17.33,-7.47 -41.79,-17.67 -73.38,-30.4 -31.09,-12.58 -57.09,-26.5 -77.81,-41.45 -20.73,-15.12 -36.35,-32.95 -46.55,-53.85 -10.36,-20.91 -15.45,-46.56 -15.45,-76.79 0,-54.2 21.23,-94.97 63.71,-122.32 42.47,-27.34 98.7,-41.1 168.68,-41.1 37.21,0 72.2,4.07 104.98,12.22 32.96,8.16 66.93,19.89 102.1,35.51l-53.34 125.53c-27.86,-12.73 -56.06,-22.75 -84.6,-30.4 -28.53,-7.64 -51.14,-11.55 -68.12,-11.55 -15.29,0 -27.01,2.04 -35.33,5.77 -8.32,3.92 -12.4,9.34 -12.4,16.65 0,6.8 2.89,12.58 8.67,17.67 5.76,5.1 16.81,11.05 33.12,17.67 16.3,6.63 39.92,16.14 71.18,28.21 32.78,12.91 59.96,27 81.36,41.78 21.42,14.77 37.37,32.79 47.74,54.02 10.53,21.24 15.63,48.08 15.63,80.69z"/>
 </g>
</svg>
